<?xml version="1.0" encoding="UTF-8" standalone="no"?>
<svg
   xmlns:dc="http://purl.org/dc/elements/1.1/"
   xmlns:cc="http://creativecommons.org/ns#"
   xmlns:rdf="http://www.w3.org/1999/02/22-rdf-syntax-ns#"
   xmlns:svg="http://www.w3.org/2000/svg"
   xmlns="http://www.w3.org/2000/svg"
   id="svg2"
   version="1.1"
   x="0"
   y="0"
   width="400"
   height="500"
   viewBox="30.5 31.5 400 500"
   enable-background="new 30.5 31.5 412 533"
   xml:space="preserve"><metadata
     id="metadata4"><rdf:RDF><cc:Work
         rdf:about=""><dc:format>
          
          
          
          
          image/svg+xml
        
        
        
        
        </dc:format><dc:type
           rdf:resource="http://purl.org/dc/dcmitype/StillImage" /><dc:title></dc:title></cc:Work></rdf:RDF></metadata><defs
     id="defs6" /><path
     fill="#fff"
     id="path8"
     d="M230.44 531.14C156.12 477.22 105.18 409.12 74.7 322.98 47.06 244.88 35.97 150.23 40.79 33.63l0.02-0.46 379.82 0 0.02 0.46c4.81 116.6-6.28 211.24-33.91 289.35C356.26 409.12 305.32 477.22 231 531.14l-0.28 0.2-0.28-0.2z"
     style="fill-opacity:1;fill:#ffe000" /><path
     id="path10"
     d="M419.96 33.21C429.03 252.66 383.7 419.16 230.5 530.31 77.31 419.16 31.99 252.66 41.06 33.21l189.45 0 189.45 0m0.92-0.95-0.92 0-189.45 0-189.45 0-0.92 0-0.04 0.92c-4.82 116.66 6.28 211.36 33.93 289.52 30.51 86.24 81.51 154.41 155.91 208.39l0.56 0.41 0.56-0.41C305.46 477.11 356.46 408.94 386.97 322.7 414.62 244.54 425.72 149.84 420.9 33.18l-0.04-0.92 0 0z" /><circle
     r="4.9401727"
     cy="119.46223"
     cx="211.57111"
     id="path4243"
     style="fill:#000000;fill-opacity:1;fill-rule:evenodd;stroke:none;stroke-width:1;stroke-linecap:round;stroke-linejoin:round;stroke-miterlimit:4;stroke-dasharray:none;stroke-opacity:1" /><path
     id="path4247"
     d="m 216.11685,456.2006 c -6.26592,4.94668 -11.61257,1.29914 -18.5206,-0.29704 -9.23978,-2.13496 -13.03513,-5.81685 -12.80608,-11.73183 -7.03761,-0.49609 -11.11199,-5.17515 -14.27081,-10.09598 -5.47372,-8.52703 -9.27319,-20.89938 -5.76499,-24.40886 23.25193,-23.26035 49.49399,-15.24205 47.49945,-22.27395 -0.84418,-2.97623 -1.68837,-4.19978 -2.53255,-9.19162 -1.37311,-8.11949 1.13697,-9.74736 0.86894,-12.96605 -0.25594,-3.07351 -3.86284,-5.2682 -5.42599,-10.66096 -2.25819,-7.79062 0.28716,-9.98982 -0.0853,-13.31115 -0.46483,-4.14511 -3.55393,-4.43443 -4.66633,-9.89601 -1.88285,-9.24428 1.91721,-13.2492 -1.01776,-17.49122 -4.96559,-7.17694 -3.40639,-21.63817 -1.08325,-26.86201 1.46701,-3.29875 -4.05143,-3.91917 -6.21679,-2.02449 -1.65934,1.45192 -4.27415,4.46199 -3.88631,6.37056 0.4748,2.33645 -0.15615,7.61276 -1.49059,9.25341 -3.15214,3.87543 -5.36923,4.7743 -11.60278,10.08634 -3.49605,2.97923 -3.36435,2.70321 -4.39772,4.86604 -0.83711,1.75209 -1.37024,6.13553 -7.21923,7.14212 -15.53556,2.67361 -17.40946,13.87371 -25.90526,13.21148 -3.04136,-0.23707 4.70416,-3.76262 4.84691,-7.00055 0.3259,-7.39196 1.22972,-6.3573 7.40656,-9.40858 4.88318,-2.41222 9.4604,-4.78755 11.06051,-8.99925 2.38153,-6.26849 2.24644,-7.39754 4.41335,-9.20291 4.54813,-3.78931 6.99279,-5.88875 11.46239,-8.37498 2.99894,-1.66817 3.66156,-5.56321 3.66656,-11.67645 0.003,-3.58541 4.9361,-5.81131 7.91617,-7.72214 3.6127,-2.31648 -2.21901,-8.53542 -7.34524,-5.55445 -2.8958,1.68396 -2.03401,4.29635 -3.65668,6.49285 -1.69431,2.29348 -5.36384,4.50878 -9.90214,7.4759 -6.79366,4.44168 -9.6491,5.13036 -12.8923,5.5323 -2.09377,0.25949 -2.37458,-0.28837 -3.09772,5.44556 -0.46141,3.65865 -7.49797,4.43061 -19.17717,10.81129 -2.31249,1.26338 -5.08247,3.43964 -7.00661,7.20418 -1.30492,2.55304 -1.6555,5.2635 -6.22491,5.47729 -2.3854,0.1116 -11.73884,-3.07295 -9.19218,-3.72943 10.42892,-2.68836 10.76588,-7.04654 12.79247,-10.90167 1.87092,-3.55901 12.60578,-7.0722 19.9577,-11.25543 1.60872,-0.91536 1.42262,-4.07561 1.83241,-7.08574 0.35282,-2.59163 1.27686,-3.95057 3.79692,-4.12677 7.05474,-0.49326 10.62695,-5.73249 18.53354,-10.28223 4.62845,-2.66338 4.37238,-3.51035 4.21878,-6.25878 -0.15807,-2.82848 1.1385,-2.68226 10.85647,-7.38173 4.75052,-2.29728 0.63303,-7.66665 -2.93151,-6.55733 0,0 -4.69867,1.17457 -6.90306,2.1483 -2.94774,1.30209 -2.37013,4.65154 -6.21161,5.87479 -2.71554,0.86472 -9.78507,4.62492 -21.67287,7.8875 -7.28519,1.99941 -6.98952,6.46708 -9.86945,6.89789 0,0 -12.05273,1.887 -20.62613,3.08545 -4.96338,0.69381 -14.639214,3.4267 -14.639214,3.4267 -6.808278,1.25722 -2.853686,-3.44454 -1.71905,-4.04253 1.472988,-0.77632 1.122596,-2.2091 -0.619503,-2.8873 -1.652736,-0.64341 -8.461989,-5.86325 -3.799769,-5.94565 6.939123,-0.12264 19.951386,0.4232 26.041756,0.52677 11.27838,0.19179 7.13664,-4.89675 10.08728,-4.72456 6.69298,0.39059 3.46512,-5.98859 6.47471,-5.81784 5.29961,0.30067 18.9107,-3.22071 23.75294,-5.07834 5.07148,-1.94557 2.71886,-7.52984 5.32529,-7.66931 10.9113,-0.58387 8.39009,-5.20364 15.08847,-5.50378 4.82631,-0.21626 3.56483,-7.34323 0.15978,-6.8869 -6.49181,0.87001 -14.22138,0.36624 -17.37863,2.91505 -2.63516,2.12734 -4.4266,8.94529 -7.40593,8.84522 -9.99165,-0.3356 -21.91795,5.86915 -29.19622,4.86998 -5.81068,-0.7977 -7.11791,1.61118 -12.58807,1.55178 -5.65222,-0.0614 -3.38459,-1.53674 -15.608845,-0.32957 -3.302537,0.32614 -6.399115,-0.63059 -12.721362,-0.43848 -3.955679,0.1202 -5.491204,-1.07583 -2.898198,-2.96673 1.145579,-0.83539 2.339773,-2.17747 3.108267,-2.16247 1.99967,0.0389 3.542902,-0.61932 1.168146,-2.83565 -1.614662,-1.50695 -2.677374,-2.07163 -4.340954,-4.27215 -3.793204,-5.01752 -1.05854,-5.21077 5.611773,-2.50338 5.889184,2.39036 8.883785,1.88611 11.362745,2.30126 7.541418,1.26296 11.968618,2.24901 21.658568,1.90428 9.1792,-0.32656 4.9173,-5.05608 8.99082,-4.73004 9.67077,0.77403 24.65386,0.59521 25.33649,-2.1336 1.58653,-6.34211 0.33399,-7.25956 2.91506,-7.31006 5.04288,-0.0986 10.46898,-1.07555 15.62623,-2.11487 6.48005,-1.3059 12.53642,-7.00482 9.54407,-8.01212 l -4.2133,-1.4183 c -2.99456,-1.00804 -0.33084,-3.44972 -4.00607,-2.94702 -11.40305,1.55973 -23.20461,4.65312 -37.99283,3.72943 -1.91047,-0.11933 -2.00447,-3.12895 -4.10741,-3.51672 -2.85238,-0.52595 -17.91187,-5.24893 -27.50336,-7.6903 -8.045873,-2.04795 -21.974101,-9.11624 -24.204843,-10.51045 -3.036338,-1.89771 1.383567,-7.44379 -0.830818,-8.31617 -5.74357,-2.26273 -6.746677,-2.61508 -6.806547,-5.48506 -0.199524,-9.56455 4.626348,-21.69129 8.640251,-27.30937 7.396254,-10.35219 15.054995,-24.35189 22.294937,-31.47519 12.08788,-11.89314 24.8753,-19.342993 41.96694,-29.39229 7.54619,-4.436905 11.42229,-5.924773 19.59485,-5.554447 3.16295,0.143324 9.29183,0.648652 7.09735,2.314353 -6.86306,5.20935 -9.83022,6.330443 -20.46269,13.861653 -2.67027,1.891411 -4.13633,7.375741 -10.40953,12.520651 -5.11068,4.19149 -6.51943,8.70578 -6.00314,10.95593 0.63498,2.76743 12.08549,-2.30028 18.82341,-6.3259 9.77795,-5.84191 15.1539,-11.95034 20.79949,-18.834373 2.01707,-2.459535 3.05308,1.067313 2.09067,3.397593 -5.03118,12.18196 -18.36936,30.47841 -27.98174,37.65457 -3.86477,2.88526 -7.25056,5.47071 -13.68664,7.70676 -3.57142,1.2408 -2.37928,8.44403 -3.92665,10.49173 -8.12251,10.74887 -21.0707,19.73618 -20.95926,23.15128 0.1013,3.10416 14.39419,5.52239 21.97312,7.30458 3.76758,0.88595 3.47333,6.80024 5.87626,6.65869 2.10101,-0.12377 1.13336,-6.11701 9.02277,-7.00471 10.03534,-1.12913 19.33309,-1.21218 28.54689,-1.09553 7.78241,0.0985 7.78189,6.36015 10.13797,6.12321 1.74873,-0.17586 7.04711,-13.15561 15.01134,-15.38062 4.13964,-1.15652 5.33712,-1.53648 5.36272,-4.18134 0.0242,-2.49633 -6.98199,-4.6862 -6.32362,-6.42592 3.10673,-8.20936 4.2951,-9.88877 5.63707,-17.12527 2.74334,-14.79336 2.75822,-14.57791 9.20995,-17.4745 2.8407,-1.27537 5.00543,-2.79973 5.01443,-5.24587 0.0202,-5.22263 0.62184,-6.5865 0.62884,-13.1918 0.002,-1.58913 0.3851,-7.6454 0.3159,-11.10472 -0.10019,-5.004896 2.28229,0.31678 4.76383,-0.31293 1.66136,-0.42158 1.64878,-2.61077 1.96706,-6.362484 0.48466,2.440053 1.03608,-0.487826 2.16169,-0.491726 1.12561,0.004 1.67703,2.93178 2.16169,0.491724 0.31828,3.751716 0.3057,5.940906 1.96706,6.362486 2.48154,0.62971 4.86402,-4.691968 4.76383,0.31293 -0.0692,3.45932 0.31414,9.51559 0.3159,11.10472 0.007,6.6053 0.60868,7.96917 0.62884,13.1918 0.009,2.44614 2.17373,3.9705 5.01443,5.24587 6.45173,2.89659 6.46661,2.68114 9.20995,17.4745 1.34197,7.2365 2.53034,8.91591 5.63707,17.12527 0.65837,1.73972 -6.34778,3.92959 -6.32362,6.42592 0.0256,2.64486 1.22308,3.02482 5.36272,4.18134 7.96423,2.22501 13.26262,15.20476 15.01135,15.38062 2.35608,0.23694 2.35556,-6.02468 10.13797,-6.12321 9.2138,-0.11665 18.51155,-0.0336 28.54689,1.09553 7.88941,0.8877 6.92176,6.88094 9.02277,7.00471 2.40293,0.14155 2.10868,-5.77274 5.87626,-6.65869 7.57893,-1.78219 21.87182,-4.20042 21.97312,-7.30458 0.11144,-3.4151 -12.83675,-12.40241 -20.95926,-23.15128 -1.54737,-2.0477 -0.35523,-9.25093 -3.92665,-10.49173 -6.43608,-2.23605 -9.82187,-4.8215 -13.68664,-7.70676 -9.61238,-7.17616 -22.95056,-25.47261 -27.98174,-37.65457 -0.96241,-2.33028 0.0736,-5.85713 2.09067,-3.3976 5.64559,6.88404 11.02154,12.99247 20.79949,18.83438 6.73792,4.02562 18.18843,9.09333 18.82341,6.3259 0.51629,-2.25015 -0.89246,-6.76444 -6.00314,-10.95593 -6.2732,-5.14491 -7.73926,-10.62924 -10.40953,-12.52065 -10.63247,-7.531213 -13.59963,-8.652306 -20.46269,-13.861656 -2.19448,-1.665701 3.9344,-2.171029 7.09735,-2.314353 8.17256,-0.370326 12.04866,1.117542 19.59485,5.554447 17.09164,10.049292 29.87906,17.499152 41.96694,29.392292 7.23994,7.1233 14.89868,21.123 22.29493,31.47519 4.01391,5.61808 8.83978,17.74482 8.64025,27.30937 -0.0599,2.86998 -1.06297,3.22233 -6.80654,5.48506 -2.21439,0.87238 2.20552,6.41846 -0.83082,8.31617 -2.23074,1.39421 -16.15897,8.4625 -24.20484,10.51045 -9.59149,2.44137 -24.65098,7.16435 -27.50336,7.6903 -2.10294,0.38777 -2.19694,3.39739 -4.10741,3.51672 -14.78822,0.92369 -26.58978,-2.1697 -37.99283,-3.72943 -3.67523,-0.5027 -1.01151,1.93898 -4.00607,2.94702 l -4.2133,1.4183 c -2.99235,1.0073 3.06402,6.70622 9.54407,8.01212 5.15725,1.03932 10.58335,2.01627 15.62623,2.11487 2.58107,0.0505 1.32853,0.96795 2.91506,7.31006 0.68263,2.72881 15.66572,2.90763 25.33649,2.1336 4.07352,-0.32604 -0.18838,4.40348 8.99082,4.73004 9.68995,0.34473 14.11715,-0.64132 21.65856,-1.90428 2.47896,-0.41515 5.47357,0.0891 11.36275,-2.30126 6.67031,-2.70739 9.40498,-2.51414 5.61177,2.50338 -1.66358,2.20052 -2.72629,2.7652 -4.34095,4.27215 -2.37476,2.21633 -0.83153,2.87459 1.16814,2.83565 0.7685,-0.015 1.96269,1.32708 3.10827,2.16247 2.59301,1.8909 1.05748,3.08693 -2.8982,2.96673 -6.32224,-0.19211 -9.41882,0.76462 -12.72136,0.43848 -12.22425,-1.20717 -9.95662,0.26822 -15.60884,0.32957 -5.47016,0.0594 -6.77739,-2.34948 -12.58807,-1.55178 -7.27827,0.99917 -19.20457,-5.20558 -29.19622,-4.86998 -2.97933,0.10007 -4.77077,-6.71788 -7.40593,-8.84522 -3.15725,-2.54881 -10.88682,-2.04504 -17.37863,-2.91505 -3.40505,-0.45633 -4.66653,6.67064 0.15978,6.8869 6.69838,0.30014 4.17717,4.91991 15.08847,5.50378 2.60643,0.13947 0.25381,5.72374 5.32529,7.66931 4.84224,1.85763 18.45333,5.37901 23.75294,5.07834 3.00959,-0.17075 -0.21827,6.20843 6.47471,5.81784 2.95064,-0.17219 -1.1911,4.91635 10.08728,4.72456 6.09037,-0.10357 19.10263,-0.64941 26.04175,-0.52677 4.66222,0.0824 -2.14703,5.30224 -3.79977,5.94565 -1.7421,0.6782 -2.09249,2.11098 -0.6195,2.8873 1.13464,0.59799 5.08923,5.29975 -1.71905,4.04253 0,0 -9.67583,-2.73289 -14.63921,-3.4267 -8.5734,-1.19845 -20.62613,-3.08545 -20.62613,-3.08545 -2.87993,-0.43081 -2.58426,-4.89848 -9.86945,-6.89789 -11.8878,-3.26258 -18.95733,-7.02278 -21.67287,-7.8875 -3.84148,-1.22325 -3.26387,-4.5727 -6.21161,-5.87479 -2.20439,-0.97373 -6.90306,-2.1483 -6.90306,-2.1483 -3.56454,-1.10932 -7.68203,4.26005 -2.93151,6.55733 9.71797,4.69947 11.01454,4.55325 10.85647,7.38173 -0.1536,2.74843 -0.40967,3.5954 4.21878,6.25878 7.90659,4.54974 11.4788,9.78897 18.53354,10.28223 2.52006,0.1762 3.4441,1.53514 3.79692,4.12677 0.40979,3.01013 0.22369,6.17038 1.83241,7.08574 7.35192,4.18323 18.08678,7.69642 19.9577,11.25543 2.02659,3.85513 2.36355,8.21331 12.79247,10.90167 2.54666,0.65648 -6.80678,3.84103 -9.19218,3.72943 -4.56941,-0.21379 -4.91999,-2.92425 -6.22491,-5.47729 -1.92414,-3.76454 -4.69412,-5.9408 -7.00661,-7.20418 -11.6792,-6.38068 -18.71576,-7.15264 -19.17717,-10.81129 -0.72314,-5.73393 -1.00395,-5.18607 -3.09772,-5.44556 -3.2432,-0.40194 -6.09864,-1.09062 -12.8923,-5.5323 -4.5383,-2.96712 -8.20783,-5.18242 -9.90214,-7.4759 -1.62267,-2.1965 -0.76088,-4.80889 -3.65668,-6.49285 -5.12623,-2.98097 -10.95794,3.23797 -7.34524,5.55445 2.98007,1.91083 7.91298,4.13673 7.91617,7.72214 0.005,6.11324 0.66762,10.00828 3.66656,11.67645 4.4696,2.48623 6.91426,4.58567 11.46239,8.37498 2.16691,1.80537 2.03182,2.93442 4.41335,9.20291 1.60011,4.2117 6.17733,6.58703 11.06051,8.99925 6.17684,3.05128 7.08066,2.01662 7.40656,9.40858 0.14275,3.23793 7.88827,6.76348 4.84691,7.00055 -8.4958,0.66223 -10.3697,-10.53787 -25.90526,-13.21148 -5.84899,-1.00659 -6.38212,-5.39003 -7.21923,-7.14212 -1.03337,-2.16283 -0.90167,-1.88681 -4.39772,-4.86604 -6.23355,-5.31204 -8.45064,-6.21091 -11.60278,-10.08634 -1.33444,-1.64065 -1.96539,-6.91696 -1.49059,-9.25341 0.38784,-1.90857 -2.22697,-4.91864 -3.88631,-6.37056 -2.16537,-1.89468 -7.68381,-1.27426 -6.2168,2.02449 2.32314,5.22384 3.88234,19.68507 -1.08325,26.86201 -2.93497,4.24202 0.86509,8.24694 -1.01776,17.49122 -1.1124,5.46158 -4.2015,5.7509 -4.66633,9.89601 -0.37246,3.32133 2.17289,5.52053 -0.0853,13.31115 -1.56315,5.39276 -5.17005,7.58745 -5.42599,10.66096 -0.26803,3.21869 2.24205,4.84656 0.86894,12.96605 -0.84418,4.99184 -1.68837,6.21539 -2.53255,9.19162 -1.99454,7.0319 24.24753,-0.9864 47.49946,22.27395 3.5082,3.50948 -0.29127,15.88183 -5.76499,24.40886 -3.15882,4.92083 -7.2332,9.59989 -14.27081,10.09598 0.22905,5.91498 -3.5663,9.59687 -12.80609,11.73183 -6.90803,1.59618 -12.25468,5.24372 -18.5206,0.29704 -1.15411,3.80343 -8.55204,6.64025 -14.38315,6.64025 -5.83111,0 -13.22904,-2.83682 -14.38315,-6.64025 z"
     style="fill:#000000;fill-rule:evenodd;stroke:#000000;stroke-width:1px;stroke-linecap:round;stroke-linejoin:round;stroke-opacity:1" /><path
     id="path4249"
     d="m 222.12843,100.25888 c -1.76231,-9.764166 -2.08174,-15.937947 -6.48018,-23.606405 -9.38856,-16.36849 -19.19915,-18.331148 -30.24089,-18.051954 -18.06674,0.456824 -28.11479,16.038244 -57.70453,26.537914 -18.06491,6.410181 -29.937373,7.405933 -46.595643,21.137765 -7.397689,6.0981 -14.749364,14.34899 -17.589083,23.76069"
     style="fill:none;fill-rule:evenodd;stroke:#000000;stroke-width:1.5;stroke-linecap:round;stroke-linejoin:round;stroke-miterlimit:4;stroke-dasharray:none;stroke-opacity:1" /><path
     id="path4251"
     d="M 228.53148,98.253103 C 227.78809,73.763774 221.455,56.553928 210.40238,52.428913"
     style="fill:none;fill-rule:evenodd;stroke:#000000;stroke-width:1.5;stroke-linecap:round;stroke-linejoin:miter;stroke-miterlimit:4;stroke-dasharray:none;stroke-opacity:1" /><circle
     transform="scale(-1,1)"
     style="fill:#000000;fill-opacity:1;fill-rule:evenodd;stroke:none;stroke-width:1;stroke-linecap:round;stroke-linejoin:round;stroke-miterlimit:4;stroke-dasharray:none;stroke-opacity:1"
     id="circle4261"
     cx="-249.42889"
     cy="119.46222"
     r="4.9401727" /><path
     style="fill:none;fill-rule:evenodd;stroke:#000000;stroke-width:1.5;stroke-linecap:round;stroke-linejoin:round;stroke-miterlimit:4;stroke-dasharray:none;stroke-opacity:1"
     d="m 238.87157,100.25888 c 1.76231,-9.764168 2.08174,-15.937949 6.48018,-23.606407 9.38856,-16.36849 19.19915,-18.331148 30.2409,-18.051954 18.06674,0.456824 28.11479,16.038244 57.70453,26.537914 18.06491,6.410181 29.93737,7.405933 46.59564,21.137767 7.39769,6.0981 14.74936,14.34899 17.58908,23.76069"
     id="path4265" /><path
     style="fill:none;fill-rule:evenodd;stroke:#000000;stroke-width:1.5;stroke-linecap:round;stroke-linejoin:miter;stroke-miterlimit:4;stroke-dasharray:none;stroke-opacity:1"
     d="m 232.46852,98.2531 c 0.74339,-24.489328 7.07648,-41.699174 18.1291,-45.824189"
     id="path4267" /></svg>