<?xml version="1.0" encoding="UTF-8" standalone="no"?>
<!-- Created with Inkscape (http://www.inkscape.org/) -->

<svg
 xmlns:dc="http://purl.org/dc/elements/1.1/"
 xmlns:cc="http://creativecommons.org/ns#"
 xmlns:rdf="http://www.w3.org/1999/02/22-rdf-syntax-ns#"
 xmlns:svg="http://www.w3.org/2000/svg"
 xmlns="http://www.w3.org/2000/svg"
 version="1.0"
 width="350"
 height="400"
 viewBox="0 0 343.89488 356.05542"
 id="Layer_1"
 xml:space="preserve"><metadata
 id="metadata344"><rdf:RDF><cc:Work
 rdf:about=""><dc:format>image/svg+xml</dc:format><dc:type
 rdf:resource="http://purl.org/dc/dcmitype/StillImage" /><dc:title></dc:title></cc:Work></rdf:RDF></metadata><defs
 id="defs642" />



<g
 transform="translate(0.9347022,142.3805)"
 id="shield">
	<path
 d="m 3.5312024,-152.97344 c 1.0531902,-1.13999 -0.5795602,2.8796 -0.5795602,4.42084 0,2.07093 0.4590934,4.36431 0.5795602,6.63667 0.2305638,4.33962 -0.00108,8.62076 0.1098128,12.57607 0.1911102,6.78864 0.7083549,15.64205 0.9950182,23.3633 0.3302893,8.882484 -2.1396057,17.393148 -1.6867593,26.537376 0.4424633,8.938584 1.0199501,17.80238 1.1342033,26.53739 0.2305759,17.802371 0.2804327,35.280696 -0.550484,52.5263618 -0.4403862,9.1317666 1.1985963,17.0524852 1.10304,25.9848072 -0.09353,8.739175 -1.6576793,17.320452 -1.6576793,26.537413 0,18.138897 -0.2534261,36.373348 0.5525641,53.627252 0.8329919,17.87325 -4.47448858,35.60274 2.2123152,52.55337 3.9800953,10.08357 9.4163546,4.57669 17.6922776,1.51065 8.423425,-3.12216 18.4505,-3.65222 27.65706,-3.20735 18.028982,0.86816 36.591339,7.00025 54.599209,2.65027 9.38722,-2.26803 19.23801,-2.98678 28.89971,-4.31035 9.94025,-1.36431 19.43523,-4.5137 29.26263,-5.52727 19.43319,-2.00674 38.33471,0.003 55.85466,7.07463 17.2455,6.96354 39.75895,2.76705 58.0495,0.001 10.43024,-1.57657 20.25358,-0.98457 30.95127,-0.98457 5.06458,0 9.67198,-0.06 14.37556,1.09268 2.02911,0.50058 10.34281,4.81093 11.74062,4.30834 0.28465,0.21592 0.56727,0.24301 0.87834,0.0417 0.27652,-8.65397 2.29749,-17.08365 2.29749,-26.48127 0,-9.23772 0.56321,-18.2656 0.56321,-27.07335 -0.007,-18.163833 -0.33853,-35.951659 -0.56321,-54.179892 -0.21347,-17.902097 0.91801,-36.412811 0,-54.1840383 -0.47576,-9.1317657 -2.55265,-17.8563727 -1.24227,-26.6723927 1.28396,-8.637402 1.58698,-16.354533 1.11826,-25.297263 -0.9312,-17.762901 0.98405,-35.876876 0.12227,-53.629374 -0.45875,-9.42055 -0.1006,-18.43593 -0.006,-27.65502 0.0416,-4.29361 0.74377,-8.2094 0.56307,-12.70473 -0.26811,-6.71165 -0.49026,-5.81417 -5.95987,-6.75943 -17.39108,-3.00381 -34.98559,1.6327 -53.19734,0.67712 -16.92149,-0.88686 -34.53901,-2.6588 -51.42126,-1.10508 -18.38403,1.69092 -38.09319,0.52352 -56.9447,0.67507 -18.40471,0.14744 -37.56573,-3.20314 -55.85416,-0.68946 -8.68522,1.19441 -17.457502,0.54202 -26.524961,0.56704 -4.432824,0.0161 -8.892812,-1.14874 -12.976802,-1.14874 -7.156235,0.001 -14.27307,1.88818 -21.302587,2.25388 -4.501515,0.23471 -8.456636,-0.6919 -12.59253,-1.22778 -4.495256,-0.58361 -8.699689,0.65447 -13.390213,0.67301 -4.636509,0.0189 -22.7442534,1.47293 -24.8817826,-1.10507"
 id="big_blue_fill"
 style="fill:#2ab6f2;fill-opacity:1" />
	<path
 d="m 15.120362,159.95396 c -5.026948,3.33238 -4.997874,7.31437 -2.88326,12.66979 1.107228,2.79765 5.627424,8.16322 8.19496,9.61596 3.884502,2.20191 10.454945,-1.79532 14.962719,-2.0196 3.427505,-0.17184 6.850877,0.16177 10.13716,0.004 3.039102,-0.14059 5.932737,-0.8537 9.090209,-0.70201 7.106305,0.35095 13.2738,2.04815 20.623479,1.75102 7.619455,-0.3094 14.777467,-0.35102 22.449601,-0.34896 17.00459,0.001 33.36257,-4.05486 50.25936,-5.51307 5.58009,-0.47983 11.17034,0.0397 16.69145,-0.77063 4.08771,-0.59421 7.18122,-0.70637 11.27299,0.0783 4.33781,0.831 8.28828,2.29747 12.6759,2.7048 4.59094,0.42158 9.31709,0.51092 13.8145,1.42908 10.07239,2.04611 20.34711,3.73082 30.56894,4.79862 7.72508,0.80384 15.62299,-0.5796 23.34708,-0.62317 4.88981,-0.0233 9.84975,0.26159 14.69485,0.0213 8.35232,-0.41738 16.92118,-3.60203 25.49004,-3.18441 3.96574,0.20761 8.55058,-0.004 12.50714,0.73529 3.34054,0.63568 8.51499,4.45784 11.9887,3.50645 3.11382,-0.84327 6.58039,-6.79471 8.79859,-9.36022 3.6394,-4.19824 5.67972,-10.09981 -0.06,-13.45871 -7.57361,-4.42476 -18.44608,-2.43877 -26.86347,-3.07227 -4.3807,-0.33653 -8.58918,-1.14048 -12.9951,-1.37522 -5.32287,-0.29911 -10.46787,0.70839 -15.73788,0.69374 -11.81586,-0.0351 -23.90518,0.47152 -35.6397,0.63161 -7.78407,0.10286 -15.44105,1.17355 -23.28305,0.77275 -13.10999,-0.67926 -24.017,-9.49748 -36.86166,-10.14347 -16.24414,-0.8081 -32.02777,6.31293 -47.97709,9.07991 -9.49091,1.64723 -19.3244,3.02245 -28.9068,3.59164 -8.855658,0.5171 -16.673044,-0.12596 -25.449402,-1.14045 -13.88666,-1.59125 -27.918755,-4.88995 -42.077583,-4.1921 -4.509784,0.22237 -8.176165,2.38064 -12.538467,3.07229 -2.312037,0.36569 -4.459997,0.26187 -6.643232,0.77916"
 id="blue_fill_2"
 style="fill:#2ab6f2;fill-opacity:1" />
	<path
 d="m 25.259658,184.43285 c 4.759078,7.62409 14.937817,11.75349 22.983137,15.1184 4.64693,1.94678 9.71142,2.66348 14.497536,4.37082 19.368318,3.37777 45.793489,3.37595 64.241949,2.8897 2.97658,-0.1789 5.36151,-1.25041 8.03922,-2.54453 5.72953,-2.76718 11.72437,-4.0491 17.49761,-6.46452 4.76273,-1.99659 10.48413,-4.11517 16.06114,-3.59162 5.58416,0.52761 12.14017,3.50622 17.47828,5.32796 11.3523,3.88643 21.076,5.89725 32.58893,6.48714 19.07344,-0.10362 49.584,4.01816 65.29067,-0.97213 4.66617,-1.57877 9.69729,-2.40729 14.32381,-4.20255 4.55535,-1.774 7.59801,-4.07353 11.44988,-7.07901 3.07012,-2.38042 12.03748,-4.93369 6.04873,-8.91408 -4.45776,-2.96845 -11.59932,-4.00845 -16.79717,-5.31151 -3.40457,-0.85106 -6.20628,-0.88868 -9.76132,-1.04014 -4.68584,-0.2015 -10.20355,-2.09419 -14.67756,-1.77396 -2.61368,0.18569 -5.06468,1.88984 -7.7861,2.55266 -3.41879,0.82242 -7.24118,1.4039 -10.47803,1.93355 -29.33072,4.80342 -56.48493,-8.35232 -85.82483,-8.66221 -17.07572,-0.1763 -33.76003,6.93807 -50.76661,8.72086 -25.945177,9.75259 -83.587181,-11.08205 -94.04157,2.80611"
 id="blue_fill"
 style="fill:#2ab6f2;fill-opacity:1" />
	<g
 transform="matrix(2.077296,0,0,2.077296,1.2794477,-266.80465)"
 id="wave_no2">
		<g
 id="_x3C_Group_x3E_">
			<g
 id="g403">
				<path
 d="m 10.03,215.541 c 0,0 4.547,-2.979 13.157,-2.438 1.829,0.104 3.798,0.297 5.824,0.609 1.248,0.188 2.533,0.4 3.79,0.643 4.337,0.82 9.076,1.562 13.966,1.223 0.28,-0.021 0.568,-0.04 0.857,-0.072 0.889,-0.062 1.758,-0.146 2.635,-0.252 2.954,-0.352 5.849,-0.852 8.584,-1.562 0.17,-0.041 0.339,-0.092 0.509,-0.146 1.379,-0.362 2.746,-0.737 4.093,-1.112 3.315,-0.897 6.669,-1.688 10.095,-2.109 0.619,-0.081 1.249,-0.146 1.878,-0.194 0.169,-0.015 0.337,-0.021 0.498,-0.043 2.216,-0.159 4.435,-0.2 6.651,-0.122 3.645,0.133 7.269,0.523 10.894,1.098 3.036,0.478 6.062,1.182 9.054,1.943 2.047,0.53 4.135,1.088 6.221,1.628 0.129,0.029 0.265,0.06 0.394,0.089 1.522,0.383 3.175,0.674 4.896,0.892 6.307,0.771 14.771,-0.938 21.551,-2.234 11.604,-2.256 18.512,2.854 18.512,2.854"
 id="path405"
 style="fill:none;stroke:#000000;stroke-width:3.4000001;stroke-linecap:round;stroke-linejoin:round" />
			</g>
			<line
 x1="152.41"
 y1="219.228"
 x2="154.7"
 y2="216.567"
 id="line407"
 style="fill:none" />
			<line
 x1="9.3800001"
 y1="215.918"
 x2="11.54"
 y2="218.987"
 id="line409"
 style="fill:none" />
			<g
 id="g411">
				<path
 d="m 13.564,218.401 c 0,0 3.685,-2.279 11.081,-1.506 7.514292,0.87003 15.38717,3.14869 22.416,2.566 5.352296,-0.38059 11.013661,-1.75603 15.811,-2.989 0.04,-0.01 0.079,-0.021 0.119,-0.029 0.593,-0.146 1.194,-0.301 1.788,-0.448 4.897551,-1.22034 9.454209,-1.82382 14.182,-1.931 1.131,-0.015 2.262,0 3.394,0.039 3.74,0.137 7.486,0.521 11.229,1.099 3.132,0.477 6.246,1.157 9.341,1.914 2.104,0.515 4.241,1.059 6.387,1.579 0.131,0.041 0.27,0.062 0.396,0.104 1.571,0.374 3.256,0.655 4.987,0.88 3.93,0.488 8.631,0.138 13.215,-0.479 0.25,-0.039 0.511,-0.08 0.76,-0.106 2.646,-0.396 4.971,-0.982 7.021,-1.555 9.84,-2.745 15.358,1.382 15.358,1.382"
 id="path413"
 style="fill:none;stroke:#000000;stroke-width:4;stroke-linecap:round;stroke-linejoin:round" />
			</g>
		</g>
		<g
 id="g415">
			<path
 d="m 154.7,216.567 -2.29,2.66 c 0,0 -6.28,-4.28 -16.16,-1.53 -2.06,0.569 -4.39,1.159 -7.05,1.561 -0.25,0.029 -0.51,0.069 -0.76,0.109 -4.604,0.62 -9.32,0.979 -13.26,0.5 -1.74,-0.22 -3.436,-0.5 -5.016,-0.87 -0.13,-0.04 -0.271,-0.061 -0.396,-0.1 -2.149,-0.521 -4.301,-1.062 -6.41,-1.57 -3.109,-0.75 -6.239,-1.43 -9.391,-1.899 -3.764,-0.569 -7.529,-0.95 -11.304,-1.079 -1.14,-0.041 -2.28,-0.051 -3.42,-0.041 -1.15,0.021 -2.3,0.07 -3.45,0.146 -0.17,0.021 -0.34,0.024 -0.51,0.039 -0.65,0.051 -1.3,0.116 -1.94,0.188 -2.86,0.329 -5.66,0.891 -8.43,1.562 -0.64,0.155 -1.29,0.315 -1.93,0.479 -1.39,0.352 -2.79,0.711 -4.19,1.062 -0.17,0.052 -0.34,0.092 -0.52,0.132 -1.57,0.38 -3.19,0.698 -4.84,0.96 -1.28,0.21 -2.59,0.38 -3.9,0.521 -0.88,0.102 -1.77,0.181 -2.66,0.236 -0.28,0.029 -0.57,0.053 -0.86,0.062 -4.93,0.316 -9.43,-0.448 -13.48,-1.312 -1.18,-0.25 -2.37,-0.471 -3.56,-0.658 -1.9,-0.302 -3.76,-0.488 -5.5,-0.578 -8.19,-0.479 -11.94,1.852 -11.94,1.852 l -2.16,-3.069 c 0,0 4.59,-3.028 13.44,-2.729 1.88,0.05 3.9,0.188 5.96,0.47 1.27,0.17 2.57,0.37 3.83,0.609 4.35,0.815 9.1,1.561 14,1.229 0.28,-0.021 0.57,-0.04 0.86,-0.067 0.89,-0.062 1.76,-0.146 2.64,-0.25 2.96,-0.34 5.86,-0.83 8.6,-1.541 0.17,-0.039 0.34,-0.09 0.51,-0.142 1.38,-0.358 2.75,-0.729 4.1,-1.1 3.32,-0.894 6.68,-1.66 10.11,-2.07 0.62,-0.08 1.25,-0.142 1.88,-0.188 0.17,-0.01 0.34,-0.021 0.5,-0.039 2.22,-0.146 4.44,-0.182 6.664,-0.09 3.646,0.147 7.276,0.562 10.906,1.147 3.04,0.49 6.068,1.21 9.068,1.99 2.052,0.539 4.142,1.106 6.229,1.659 0.13,0.025 0.262,0.061 0.391,0.091 1.53,0.39 3.184,0.688 4.898,0.909 6.32,0.8 14.812,-0.87 21.609,-2.149 11.652,-2.231 19.132,2.898 19.132,2.898 z"
 id="path417"
 style="fill:#ffffff" />
		</g>
	</g>
	<g
 transform="matrix(2.077296,0,0,2.077296,1.2794477,-266.80465)"
 id="wave_no3">
		<g
 id="XMLID_2_">
			<g
 id="g421">
				<g
 id="g423">
					<path
 d="m 4.31,208.978 c 0,0 5.34,-3.72 16.18,-3.68 0.25,0 0.51,0 0.77,0.01 1.46,0.021 2.98,0.11 4.56,0.28 1.05,0.109 2.09,0.229 3.1,0.369 0.81,0.11 1.6,0.221 2.37,0.341 4.47,0.68 9.24,1.35 13.84,1.439 1.54,0.029 3.05,-0.01 4.54,-0.109 0.53,-0.04 1.06,-0.091 1.59,-0.141 1.01,-0.109 2.02,-0.24 3.02,-0.399 0.3,-0.051 0.61,-0.101 0.91,-0.149 0.76,-0.141 1.5,-0.275 2.23,-0.438 0.57,-0.119 1.13,-0.25 1.69,-0.393 0.28,-0.062 0.57,-0.131 0.85,-0.211 0.29,-0.066 0.59,-0.146 0.88,-0.229 0.9,-0.25 1.8,-0.5 2.69,-0.75 2.25,-0.62 4.5,-1.188 6.76,-1.642 0.87,-0.17 1.75,-0.319 2.62,-0.449 0.64,-0.092 1.27,-0.17 1.91,-0.239 0.5,-0.062 1.01,-0.108 1.51,-0.16 0.5,-0.038 1,-0.069 1.49,-0.101 0.82,-0.051 1.63,-0.08 2.44,-0.08 0.59,-0.012 1.19,-0.012 1.78,0 0.66,0.021 1.311,0.04 1.95,0.068 0.271,0.012 0.55,0.021 0.819,0.041 3.09,0.199 6.121,0.619 9.105,1.181 3.104,0.569 6.12,1.341 9.13,2.141 0.104,0.029 0.216,0.062 0.312,0.091 0.879,0.229 1.771,0.461 2.66,0.685 0.102,0.026 0.188,0.05 0.289,0.075 1.08,0.265 2.229,0.5 3.438,0.725 0.948,0.171 1.938,0.312 2.96,0.421 1.021,0.104 2.08,0.185 3.146,0.239 1.354,0.062 2.74,0.04 4.16,-0.04 1.141,-0.062 2.318,-0.17 3.5,-0.312 2.898,-0.356 5.971,-0.892 8.92,-1.461 0.648,-0.131 1.312,-0.24 1.959,-0.341 1.312,-0.21 2.645,-0.368 3.939,-0.489 0.171,-0.011 0.33,-0.025 0.49,-0.039 0.64,-0.041 1.279,-0.08 1.92,-0.102 5.648,-0.21 10.771,0.602 14.359,1.5 3.93,0.971 5.049,2.108 5.049,2.108"
 id="path425"
 style="fill:none;stroke:#000000;stroke-width:3.5" />
				</g>
				<g
 id="g427">
					<path
 d="m 3.47,206.287 c 0,0 4.664,-4.06 15.973,-4.235 0.27,0 0.549,0 0.818,-0.001 1.537,-10e-4 3.153,0.068 4.83,0.218 1.118,0.104 2.214,0.207 3.302,0.336 0.847,0.109 1.695,0.225 2.513,0.328 2.174,0.312 4.407,0.615 6.639,0.896 2.661,0.314 5.332,0.562 7.922,0.607 1.594,0.037 3.168,0.006 4.691,-0.104 0.558,-0.04 1.096,-0.092 1.633,-0.149 1.036,-0.107 2.062,-0.242 3.067,-0.414 0.318,-0.053 0.627,-0.109 0.936,-0.174 0.756,-0.142 1.503,-0.292 2.24,-0.464 0.577,-0.13 1.145,-0.261 1.702,-0.399 0.278,-0.068 0.567,-0.144 0.846,-0.225 0.298,-0.08 0.597,-0.171 0.885,-0.251 0.906,-0.252 1.802,-0.513 2.698,-0.772 2.25,-0.649 4.489,-1.246 6.737,-1.709 0.866,-0.172 1.732,-0.334 2.598,-0.467 0.637,-0.104 1.264,-0.185 1.891,-0.255 0.498,-0.062 0.996,-0.108 1.493,-0.159 0.498,-0.041 0.985,-0.082 1.482,-0.113 0.796,-0.051 1.603,-0.07 2.398,-0.084 0.587,0 1.175,-0.002 1.75,0.01 0.646,0.021 1.279,0.037 1.922,0.074 0.119,0 0.248,0.013 0.369,0.013 0.139,0.01 0.289,0.021 0.426,0.026 3.021,0.205 5.979,0.643 8.896,1.217 3.009,0.596 5.935,1.391 8.851,2.227 0.103,0.029 0.196,0.062 0.312,0.092 0.847,0.235 1.702,0.479 2.565,0.705 0.103,0.027 0.188,0.051 0.275,0.078 1.049,0.277 2.161,0.518 3.326,0.745 0.93,0.181 1.882,0.313 2.878,0.427 0.996,0.117 2.015,0.195 3.062,0.244 1.312,0.068 2.668,0.059 4.056,-0.033 0.774,-0.054 1.584,-0.123 2.391,-0.216 0.341,-0.038 0.688,-0.079 1.026,-0.131 2.857,-0.384 5.879,-1.024 8.812,-1.729 0.52,-0.131 1.047,-0.238 1.574,-0.354 0.12,-0.027 0.239,-0.051 0.357,-0.068 1.316,-0.271 2.662,-0.453 4.011,-0.596 0.157,-0.011 0.329,-0.029 0.487,-0.04 0.668,-0.062 1.336,-0.092 2.004,-0.11 5.939,-0.111 11.66,1.293 15.486,2.424 4.176,1.229 4.694,3.102 4.694,3.102"
 id="path429"
 style="fill:none;stroke:#000000;stroke-width:3" />
				</g>
			</g>
			<g
 id="g431">
				<path
 d="m 160.819,206.968 -0.659,1.771 c 0,0 -1.12,-1.141 -5.05,-2.109 -3.59,-0.898 -8.711,-1.71 -14.36,-1.5 -0.64,0.021 -1.28,0.061 -1.92,0.102 -0.16,0.014 -0.319,0.028 -0.49,0.039 -1.3,0.121 -2.63,0.279 -3.94,0.489 -0.646,0.101 -1.31,0.21 -1.959,0.341 -2.951,0.569 -6.021,1.104 -8.92,1.461 -1.181,0.144 -2.355,0.25 -3.5,0.312 -1.42,0.08 -2.811,0.104 -4.16,0.04 -1.065,-0.062 -2.131,-0.131 -3.146,-0.239 -1.021,-0.107 -2.01,-0.25 -2.96,-0.421 -1.21,-0.221 -2.355,-0.46 -3.438,-0.721 -0.104,-0.029 -0.188,-0.052 -0.289,-0.079 -0.895,-0.223 -1.78,-0.45 -2.659,-0.684 -0.103,-0.026 -0.212,-0.062 -0.312,-0.09 -3.012,-0.802 -6.027,-1.57 -9.132,-2.143 -2.985,-0.562 -6.021,-0.979 -9.106,-1.182 -0.271,-0.021 -0.551,-0.028 -0.819,-0.041 -0.64,-0.027 -1.289,-0.049 -1.949,-0.067 -0.59,-0.01 -1.19,-0.01 -1.78,0 -0.81,0 -1.62,0.028 -2.44,0.08 -0.49,0.028 -0.99,0.062 -1.49,0.103 -0.5,0.051 -1.01,0.104 -1.51,0.158 -0.64,0.069 -1.27,0.149 -1.91,0.239 -0.87,0.13 -1.75,0.278 -2.62,0.448 -2.26,0.449 -4.51,1.021 -6.76,1.643 -0.89,0.25 -1.79,0.5 -2.69,0.75 -0.29,0.079 -0.59,0.159 -0.88,0.229 -0.28,0.08 -0.57,0.146 -0.85,0.211 -0.56,0.141 -1.12,0.271 -1.69,0.391 -0.73,0.16 -1.47,0.301 -2.23,0.439 -0.3,0.051 -0.61,0.101 -0.91,0.146 -1,0.159 -2.01,0.29 -3.02,0.396 -0.53,0.053 -1.06,0.104 -1.59,0.144 -1.49,0.104 -3,0.146 -4.54,0.106 -4.6,-0.092 -9.37,-0.762 -13.84,-1.438 -0.77,-0.115 -1.56,-0.229 -2.37,-0.341 -1.01,-0.144 -2.05,-0.261 -3.1,-0.369 -1.58,-0.17 -3.1,-0.261 -4.56,-0.276 -0.26,-0.014 -0.52,-0.014 -0.77,-0.014 -10.84,-0.04 -16.18,3.684 -16.18,3.684 l -0.84,-2.688 c 0,0 4.66,-4.062 15.99,-4.229 0.27,0 0.55,0 0.82,0 1.54,0 3.16,0.065 4.84,0.221 1.12,0.101 2.22,0.21 3.31,0.34 0.85,0.109 1.7,0.221 2.52,0.33 2.18,0.312 4.42,0.619 6.66,0.898 2.67,0.316 5.35,0.566 7.95,0.616 1.6,0.04 3.18,0.015 4.71,-0.101 0.56,-0.04 1.1,-0.092 1.64,-0.149 1.04,-0.106 2.07,-0.235 3.08,-0.405 0.32,-0.055 0.63,-0.109 0.94,-0.17 0.76,-0.146 1.51,-0.291 2.25,-0.461 0.58,-0.134 1.15,-0.264 1.71,-0.399 0.28,-0.069 0.57,-0.14 0.85,-0.22 0.3,-0.08 0.6,-0.17 0.89,-0.25 0.91,-0.25 1.81,-0.515 2.71,-0.771 2.26,-0.647 4.51,-1.238 6.77,-1.699 0.87,-0.17 1.74,-0.33 2.61,-0.46 0.64,-0.101 1.27,-0.181 1.9,-0.25 0.5,-0.062 1,-0.109 1.5,-0.158 0.5,-0.041 0.99,-0.08 1.49,-0.109 0.8,-0.051 1.61,-0.067 2.41,-0.078 0.59,0 1.18,0 1.76,0.011 0.649,0.021 1.289,0.04 1.931,0.08 0.119,0 0.25,0.013 0.369,0.013 0.141,0.012 0.29,0.021 0.432,0.027 3.039,0.21 6.011,0.646 8.938,1.229 3.021,0.604 5.96,1.397 8.892,2.238 0.102,0.029 0.198,0.061 0.311,0.092 0.854,0.237 1.711,0.479 2.579,0.709 0.104,0.028 0.188,0.051 0.28,0.08 1.049,0.278 2.17,0.521 3.34,0.75 0.934,0.18 1.893,0.318 2.893,0.43 1,0.121 2.021,0.201 3.066,0.25 1.32,0.07 2.684,0.062 4.07,-0.025 0.779,-0.052 1.59,-0.12 2.399,-0.21 0.34,-0.04 0.688,-0.08 1.028,-0.13 2.871,-0.385 5.896,-1.021 8.84,-1.725 0.521,-0.129 1.052,-0.238 1.58,-0.352 0.121,-0.027 0.24,-0.05 0.359,-0.068 1.317,-0.271 2.67,-0.449 4.02,-0.591 0.16,-0.011 0.33,-0.028 0.49,-0.04 0.67,-0.062 1.34,-0.091 2.01,-0.109 5.949,-0.105 11.682,1.305 15.512,2.435 4.17,1.221 4.689,3.09 4.689,3.09 z"
 id="path433"
 style="fill:#ffffff" />
			</g>
		</g>
	</g>
	<g
 transform="matrix(2.077296,0,0,2.077296,1.2794477,-266.80465)"
 id="end_of_wave_no4">
		<g
 id="g436">
			<path
 d="m 47.516,193.718 c 0.319,0.118 0.345,-0.379 0.883,-0.39 1.695,-0.036 4.195,-0.291 4.782,0.772 0.787,1.428 -2.969,2.799 -3.834,2.77"
 id="path438" />
			<path
 d="m 49.346,196.87 c 0,0 0.628,-0.996 0.203,-1.729 -0.486,-0.843 -2.034,-1.43 -2.034,-1.43"
 id="path440" />
		</g>
	</g>
	<g
 transform="matrix(2.077296,0,0,2.077296,1.2794477,-266.80465)"
 id="wave_no4_black_border">
		<g
 id="g443">
			<path
 d="m 1.225,198.866 c 0,0 3.235,-1.52 10.059,-2.635 2.071,-0.338 4.417,-0.643 6.914,-0.801 0.949,-0.062 1.912,-0.108 2.877,-0.142 3.389,-0.099 6.814,-0.034 9.706,0.122 2.205,0.119 3.491,0.337 4.62,0.527 0.104,0.021 0.211,0.035 0.32,0.059 2.565,0.434 5.107,0.24 7.634,0.378 0.913,0.048 1.725,-0.151 2.552,-0.271 1.527,-0.211 2.988,-0.307 4.344,-0.936 0,-1.09 -4.441,-0.2 -5.327,-0.156 -2.085,0.104 -4.646,-0.183 -6.359,-0.453"
 id="path445"
 style="fill:none;stroke:#000000;stroke-width:3" />
		</g>
		<g
 id="g447">
			<path
 d="m 38.707,194.565 c 0,0 -1.871,-0.129 -4.271,-0.609 -3.917,-0.784 -10.172,-1.837 -16.269,-1.734 -3.888,0.065 -7.679,0.713 -10.714,1.457 -4.029,0.988 -6.265,2.312 -6.265,2.312"
 id="path449"
 style="fill:none;stroke:#000000;stroke-width:3" />
		</g>
		<path
 d="m 1.629,198.866 c 0,0 -0.012,-0.047 -0.031,-0.131 -0.125,-0.562 -0.411,-2.745 -0.411,-2.745"
 id="path451"
 style="fill:none" />
	</g>
	<g
 transform="matrix(2.077296,0,0,2.077296,1.2794477,-266.80465)"
 id="wave_no4_white_fill">
		<g
 id="g454">
			<path
 d="m 11.674,196.358 c -6.65,0.896 -9.84,2.41 -9.84,2.41 l -0.71,-2.854 c 0,0 2.23,-1.315 6.26,-2.312 3.04,-0.737 6.83,-1.394 10.72,-1.461 6.09,-0.103 12.35,0.949 16.27,1.737 2.4,0.479 4.27,0.61 4.27,0.61 1.18,0.188 3.06,0.18 4.43,0.367 0.58,0.08 1.17,0.121 1.75,0.103 0.81,-0.026 4.98,-0.817 5,0.29 -1.3,0.66 -2.7,0.79 -4.19,1.029 -0.8,0.131 -1.59,0.351 -2.49,0.318 -2.48,-0.104 -4.98,0.106 -7.51,-0.289 -0.1,-0.021 -0.2,-0.041 -0.31,-0.062 -1.11,-0.181 -2.37,-0.392 -4.54,-0.5 -3.66,-0.181 -8.17,-0.222 -12.36,-0.021 -2.45,0.135 -4.73,0.366 -6.75,0.635 z"
 id="path456"
 style="fill:#ffffff" />
		</g>
	</g>
	<g
 transform="matrix(2.077296,0,0,2.077296,1.2794477,-266.80465)"
 id="right_stroke_mountain">
		<path
 d="m 85.181,152.37 c -0.541,-5.146 -1.101,-10.403 -2.32,-15.301 -0.605,-2.447 -1.061,-4.962 -1.688,-7.405 -0.59,-2.329 -1.81,-4.519 -2.61,-6.875 -1.71,-5.059 -1.66,-9.949 -0.5,-15.101 1.05,-4.708 2.02,-9.504 4.086,-13.804 0.604,1.01 -0.626,4.957 -0.912,6.018 -0.7,2.658 -1.64,5.007 -1.69,7.895 -0.05,2.858 -0.08,5.597 0.03,8.395 0.15,3.478 0.83,6.605 1.67,9.753 0.46,1.739 0.96,3.488 1.42,5.298 1.25,4.865 2.938,9.714 3.24,14.85 0.17,2.947 0.077,5.297 0.72,8.074 0.59,2.567 1.012,5.058 1.512,7.626 1.778,8.974 6.148,18.448 13.562,24.694 1.487,1.249 3.067,2.458 4.72,3.587 2.354,1.619 4.83,3.067 7.354,4.238 1.92,0.89 3.971,1.271 6.066,1.408 3.21,0.21 6.521,-0.13 9.61,-0.011 0.96,-0.354 1.8,-0.34 2.771,-0.58 2.271,-0.562 4.42,-1.567 6.75,-2.168 2.487,-0.645 5.09,-0.529 7.721,-0.51 5.59,0.037 9.699,0.929 14.619,2.863 0.393,1.353 -0.393,1.812 -1.58,1.853 -1.988,0.052 -5.129,-1.078 -5.971,-1.312 -2.658,-0.721 -5.398,-0.816 -8.199,-0.931 -0.539,-0.021 -1.068,-0.04 -1.607,-0.069 -1.271,-0.066 -2.512,0.029 -3.723,0.229 -0.91,0.147 -1.812,0.353 -2.709,0.578 -2.961,0.763 -5.854,1.818 -8.898,2.158 -4.67,0.512 -10.762,1.028 -15.09,-0.749 -4.15,-1.7 -8.092,-3.986 -11.592,-6.814 -3.621,-2.93 -5.771,-6.812 -8.221,-10.546 C 88.38,171.598 86.2,162.074 85.181,152.37 z"
 id="path459"
 style="fill:none;stroke:#000000;stroke-width:3" />
		<path
 d="m 85.181,152.37 c -0.541,-5.146 -1.101,-10.403 -2.32,-15.301 -0.605,-2.447 -1.061,-4.962 -1.688,-7.405 -0.59,-2.329 -1.81,-4.519 -2.61,-6.875 -1.71,-5.059 -1.66,-9.949 -0.5,-15.101 1.05,-4.708 2.02,-9.504 4.086,-13.804 0.604,1.01 -0.626,4.957 -0.912,6.018 -0.7,2.658 -1.64,5.007 -1.69,7.895 -0.05,2.858 -0.08,5.597 0.03,8.395 0.15,3.478 0.83,6.605 1.67,9.753 0.46,1.739 0.96,3.488 1.42,5.298 1.25,4.865 2.938,9.714 3.24,14.85 0.17,2.947 0.077,5.297 0.72,8.074 0.59,2.567 1.012,5.058 1.512,7.626 1.778,8.974 6.148,18.448 13.562,24.694 1.487,1.249 3.067,2.458 4.72,3.587 2.354,1.619 4.83,3.067 7.354,4.238 1.92,0.89 3.971,1.271 6.066,1.408 3.21,0.21 6.521,-0.13 9.61,-0.011 0.96,-0.354 1.8,-0.34 2.771,-0.58 2.271,-0.562 4.42,-1.567 6.75,-2.168 2.487,-0.645 5.09,-0.529 7.721,-0.51 5.59,0.037 9.699,0.929 14.619,2.863 0.393,1.353 -0.393,1.812 -1.58,1.853 -1.988,0.052 -5.129,-1.078 -5.971,-1.312 -2.604,-0.706 -5.286,-0.812 -8.027,-0.924 -0.057,-0.002 -0.114,-0.005 -0.172,-0.007 -0.539,-0.021 -1.068,-0.04 -1.607,-0.069 -1.271,-0.066 -2.512,0.029 -3.723,0.229 -0.91,0.147 -1.812,0.353 -2.709,0.578 -2.961,0.763 -5.854,1.818 -8.898,2.158 -4.67,0.512 -10.762,1.028 -15.09,-0.749 -4.15,-1.7 -8.092,-3.986 -11.592,-6.814 -3.621,-2.93 -5.771,-6.812 -8.221,-10.546 C 88.38,171.598 86.2,162.074 85.181,152.37 z"
 id="path461"
 style="fill:#ffffff" />
	</g>
	<g
 transform="matrix(2.077296,0,0,2.077296,1.2794477,-266.80465)"
 id="shield_outlines">
		<path
 d="m 1,198.271 c 0,0 0.046,3.324 1.382,7.326 0.213,0.646 0.453,1.291 0.73,1.938 0.703,1.625 1.621,3.351 2.971,5.153 1.762,2.359 3.963,4.681 6.603,6.604 5.372,3.923 12.365,6.334 17.904,7.636 5.545,1.303 9.659,1.096 9.659,1.096"
 id="path464"
 style="fill:none;stroke:#000000;stroke-width:2" />
		<path
 d="m 128.062,228.022 c 0,0 0.707,-0.064 1.566,-0.086 0.648,-0.021 1.514,-0.062 2.559,-0.172 1.07,-0.115 2.324,-0.312 3.719,-0.636 2.021,-0.464 4.271,-1.088 6.543,-1.991 2.98,-1.191 6.01,-2.763 8.582,-4.763 3.06,-2.374 5.479,-5.336 7.285,-8.216 0.238,-0.377 0.463,-0.754 0.683,-1.125 0.341,-0.602 0.646,-1.188 0.922,-1.771 0.146,-0.312 0.285,-0.619 0.404,-0.916 0.106,-0.257 0.2,-0.505 0.286,-0.748 0.154,-0.432 0.272,-0.848 0.371,-1.246 0.115,-0.477 0.213,-0.938 0.308,-1.386 0.097,-0.479 0.188,-0.928 0.271,-1.325 0.101,-0.468 0.168,-0.908 0.207,-1.287 0.078,-0.776 0.112,-1.609 0.112,-1.609"
 id="path466"
 style="fill:none;stroke:#000000;stroke-width:2" />
		<line
 x1="0.082999997"
 y1="54.188"
 x2="162.41701"
 y2="54.188"
 id="line468"
 style="fill:none;stroke:#000000;stroke-width:2" />
	</g>
	<rect
 width="3.3776722"
 height="2.9892273"
 x="168.41963"
 y="228.50481"
 id="shield_bottom" />
	<g
 transform="matrix(2.077296,0,0,2.077296,1.2794477,-266.80465)"
 id="right_part_mountain">
		<g
 id="g472">
			<path
 d="m 161.851,174.528 0.01,12.66 -0.311,0 c 0,-0.09 -5.09,-0.289 -6.199,-0.399 -6.07,-0.608 -12.531,-0.431 -18.801,0.21 -3.08,0.32 -5.73,1.48 -8.8,1.79 -3.069,0.312 -6.55,-0.319 -9.399,-1.04 -2.646,-0.68 -5.051,-1.619 -7.551,-2.811 -2.359,-1.119 -5.279,-2.109 -7.05,-4.149 -3.39,-3.89 -6.56,-9.22 -8.21,-13.989 -3.811,-11.101 -8.391,-22.17 -8.391,-34.41 0,-6.22 0.631,-13.06 -0.562,-19 -0.566,-2.88 -2.25,-5.69 -2.236,-8.6 0.01,-2.84 0.276,-6.31 1.01,-8.99 0.802,-2.98 1.539,-5.4 1.392,-8.61 -0.17,-3.25 0.8,-6.45 0.358,-9.56 -0.238,-1.62 -2.648,-7.28 -0.358,-8.44 2.13,-1.07 4.04,4.05 4.95,5.24 1.75,2.32 3.5,3.85 4.09,6.76 0.33,1.6 0.17,3.13 0.357,4.8 0.17,1.45 0.84,2.44 1.451,3.75 1.299,2.81 1.116,6.22 1.76,9.25 0.642,2.99 2.356,5.63 3.789,8.4 1.381,2.67 2.053,5.23 2.201,8.2 0.08,1.57 -0.384,3.2 0.01,4.59 0.142,0.5 0.369,0.969 0.642,1.43 l -0.05,0.029 c -0.79,-0.305 -1.422,4.811 -1.66,5.641 -0.62,2.119 -1.45,4.18 -2.223,6.25 -0.709,1.949 -1.367,3.851 -1.389,5.949 -0.021,1.985 -0.08,4.471 0.776,6.271 1.487,3.11 4.229,5.479 7.021,7.631 2.801,2.181 4.951,5.101 7.83,7.101 1.641,1.129 3.43,2.069 5.104,3.16 1.311,0.84 2.537,1.779 3.566,2.959 2.41,2.76 4.66,5.646 7.062,8.41 1.01,1.17 2.102,2.58 3.438,3.199 1.068,0.5 3.211,0.711 3.858,1.421 -0.87,-1.479 -2.778,-2.659 -4.04,-3.819 -1.891,-1.735 -1.947,-3.051 -2.818,-5.221 -0.33,-0.811 -1.09,-1.42 -1.932,-1.91 1.938,0.396 4.062,0.25 6,0.51 2.961,0.4 5.592,1.461 8.398,2.201 2.75,0.719 5.642,1.539 8.41,2.188 1.526,0.36 3.012,0.37 4.602,0.601 0.914,0.129 3.264,0.09 3.895,0.347 z m -45.721,4.282 c 2.52,1.25 5.471,2.83 8.26,2.381 -1.26,-0.5 -3.34,-0.791 -4.74,-1.525 -1.34,-0.7 -2.234,-2.438 -3.06,-3.686 -0.84,-1.274 -1.63,-2.72 -2.25,-4.129 -0.739,-1.721 -1,-3.431 -1.59,-5.146 -0.75,-2.188 -1.59,-4.67 -3.87,-5.7 -0.14,-0.21 -0.279,-0.438 -0.38,-0.688 l 0.25,0.629 c 0.04,0.021 0.09,0.041 0.13,0.062 0.32,0.474 0.689,0.894 0.87,1.438 0.29,0.83 0.31,1.82 0.399,2.723 0.188,1.857 -0.319,3.8 -0.149,5.648 0.19,2.146 0.54,3.472 2.03,4.979 1.199,1.214 2.64,2.294 4.1,3.014 z m -12.09,-10.231 c -1.221,-0.779 -1.57,-3.301 -1.93,-4.729 -0.48,-1.951 -0.791,-3.846 -1,-5.91 -0.391,-3.99 -1.541,-7.562 -3.76,-11.021 -0.711,-1.102 -1.34,-1.988 -2.17,-2.961 -0.791,-0.932 -2.201,-1.42 -2.91,-2.318 l -0.41,-0.142 c 2.74,1.95 4.129,6.489 5.39,9.399 1.64,3.811 1.86,7.811 2.899,11.74 0.571,2.141 1.372,5.243 3.891,5.942 z m -8.019,-80.93 0.17,-1.01 c -1.735,0.81 -3.33,3.46 -3.871,5.05 -0.729,2.18 -1.709,4.11 -2.646,6.27 -1.84,4.26 1.99,9.03 2.646,13.42 0.4,2.65 0.07,5.2 0.17,7.57 0.111,2.6 -0.444,5.92 0.361,8.391 0.18,0.04 0.299,0.109 0.439,0.181 0.391,-5.25 0.949,-10.951 0.54,-16.141 -0.21,-2.66 -1.351,-4.8 -1.341,-7.58 0,-2.63 0.221,-5.2 0.711,-7.7 0.49,-2.511 1.11,-6.491 2.821,-8.451 z"
 id="path474"
 style="fill:#ffffff" />
			<path
 d="m 139.34,179.63 c -0.649,-0.71 -2.79,-0.921 -3.86,-1.421 -1.34,-0.619 -2.43,-2.028 -3.438,-3.199 -2.398,-2.771 -4.648,-5.649 -7.062,-8.409 -1.024,-1.181 -2.26,-2.121 -3.564,-2.961 l 0.154,-0.24 c 0.806,0.531 1.636,1.056 2.48,1.556 0.801,0.471 1.59,0.96 2.381,1.431 0.479,0.475 0.979,0.899 1.521,1.266 0.8,0.539 1.68,0.85 2.6,1.039 0.842,0.485 1.602,1.101 1.932,1.906 0.871,2.172 0.934,3.479 2.818,5.225 1.258,1.147 3.168,2.326 4.038,3.807 z"
 id="path476" />
			<path
 d="m 128.56,167.608 c 0.604,0.33 1.32,0.66 1.99,1.065 -0.92,-0.188 -1.8,-0.5 -2.6,-1.034 -0.54,-0.361 -1.04,-0.791 -1.52,-1.266 0.7,0.427 1.4,0.836 2.13,1.235 z"
 id="path478" />
			<path
 d="m 122.59,161.749 c 1.2,1.41 2.41,3.21 3.841,4.631 -0.791,-0.471 -1.58,-0.96 -2.381,-1.431 -0.85,-0.5 -1.68,-1.021 -2.48,-1.55 -2.229,-1.49 -4.309,-3.104 -6.396,-4.9 -2.8,-2.398 -5.935,-4.659 -7.76,-7.971 -1.884,-3.398 -2.54,-7.569 -3.108,-11.379 -0.632,-4.26 -0.539,-8.84 0.723,-12.84 0.421,-1.32 0.949,-2.65 0.789,-4.146 l 0.142,-0.524 0.05,-0.031 c 0.422,0.729 0.922,1.431 1.301,2.188 2.642,5.32 2.642,11.67 4.041,17.4 1.271,5.181 3.68,9.891 6.351,14.646 1.347,2.407 3.187,3.907 4.887,5.907 z"
 id="path480"
 style="fill:#ffffff" />
			<path
 d="m 124.39,181.188 c -2.789,0.451 -5.74,-1.129 -8.26,-2.379 -1.46,-0.726 -2.9,-1.806 -4.1,-3.021 -1.49,-1.51 -1.84,-2.83 -2.03,-4.979 -0.17,-1.854 0.34,-3.791 0.149,-5.65 -0.09,-0.899 -0.109,-1.891 -0.399,-2.721 -0.181,-0.549 -0.55,-0.975 -0.87,-1.439 2.28,1.029 3.12,3.511 3.87,5.7 0.59,1.721 0.851,3.431 1.59,5.149 0.62,1.405 1.41,2.851 2.25,4.131 0.82,1.234 1.72,2.979 3.06,3.68 1.4,0.74 3.48,1.029 4.74,1.529 z"
 id="path482" />
			<path
 d="m 121.569,163.399 -0.159,0.24 c -1.671,-1.096 -3.46,-2.031 -5.101,-3.16 -2.879,-2 -5.029,-4.92 -7.83,-7.104 -2.789,-2.146 -5.529,-4.521 -7.021,-7.631 -0.857,-1.802 -0.8,-4.279 -0.777,-6.271 0.021,-2.103 0.68,-4 1.389,-5.949 0.771,-2.068 1.604,-4.131 2.224,-6.25 0.237,-0.828 0.87,-5.938 1.66,-5.644 l -0.144,0.53 c 0.16,1.488 -0.369,2.816 -0.789,4.141 -1.26,4 -1.353,8.579 -0.723,12.842 0.57,3.812 1.229,7.979 3.11,11.381 1.829,3.312 4.96,5.568 7.76,7.972 2.093,1.804 4.172,3.413 6.401,4.903 z"
 id="path484" />
			<path
 d="m 108.88,160.999 c -0.04,-0.02 -0.09,-0.04 -0.13,-0.061 l -0.25,-0.629 c 0.101,0.251 0.239,0.48 0.38,0.69 z"
 id="path486" />
			<path
 d="m 102.11,163.851 c 0.359,1.435 0.709,3.949 1.93,4.729 -2.52,-0.699 -3.32,-3.802 -3.891,-5.938 -1.039,-3.932 -1.26,-7.932 -2.899,-11.74 -1.261,-2.905 -2.649,-7.445 -5.39,-9.396 l 0.41,0.146 c 0.709,0.896 2.119,1.391 2.91,2.314 4.246606,4.10008 5.45351,9.47485 5.93,13.982 0.209,2.062 0.52,3.951 1,5.903 z"
 id="path488" />
			<path
 d="m 96.19,86.64 -0.17,1.01 c -1.711,1.96 -2.33,5.94 -2.82,8.45 -0.49,2.5 -0.71,5.07 -0.71,7.7 -0.011,2.78 1.13,4.92 1.34,7.58 0.41,5.19 -0.149,10.891 -0.54,16.141 -0.141,-0.065 -0.26,-0.141 -0.439,-0.181 -0.811,-2.47 -0.25,-5.791 -0.361,-8.391 -0.1,-2.37 0.23,-4.92 -0.17,-7.57 -0.654,-4.39 -4.484,-9.16 -2.646,-13.42 0.938,-2.16 1.921,-4.09 2.646,-6.27 0.54,-1.589 2.13,-4.24 3.87,-5.049 z"
 id="path490" />
		</g>
		<g
 id="g492">
			<polyline
 points="161.87,200.81 161.86,187.188 161.851,174.528 161.75,53.189         "
 id="polyline494"
 style="fill:none;stroke:#000000;stroke-width:2" />
			<path
 d="m 161.95,174.59 c -0.02,-0.021 -0.061,-0.04 -0.1,-0.062 -0.631,-0.26 -2.98,-0.219 -3.896,-0.354 -1.591,-0.229 -3.065,-0.235 -4.604,-0.601 -2.771,-0.649 -5.66,-1.475 -8.41,-2.188 -2.811,-0.737 -5.438,-1.802 -8.396,-2.198 -1.938,-0.264 -4.062,-0.119 -6,-0.514 -0.92,-0.188 -1.8,-0.5 -2.604,-1.038 -0.537,-0.358 -1.037,-0.788 -1.52,-1.262 -1.432,-1.421 -2.641,-3.224 -3.841,-4.631 -1.7,-2 -3.54,-3.5 -4.899,-5.896 -2.67,-4.764 -5.08,-9.474 -6.351,-14.648 -1.399,-5.729 -1.399,-12.08 -4.04,-17.4 -0.38,-0.76 -0.88,-1.46 -1.301,-2.189 -0.271,-0.459 -0.5,-0.93 -0.639,-1.425 -0.396,-1.39 0.066,-3.02 -0.013,-4.59 -0.147,-2.97 -0.817,-5.53 -2.198,-8.2 -1.435,-2.77 -3.15,-5.41 -3.789,-8.4 -0.646,-3.03 -0.461,-6.44 -1.763,-9.25 -0.608,-1.31 -1.278,-2.3 -1.448,-3.75 -0.189,-1.67 -0.029,-3.2 -0.359,-4.8 -0.59,-2.91 -2.34,-4.44 -4.09,-6.76 -0.91,-1.19 -2.82,-6.31 -4.951,-5.24 -2.289,1.16 0.121,6.82 0.361,8.44 0.438,3.11 -0.531,6.31 -0.361,9.56 0.15,3.21 -0.59,5.63 -1.389,8.61 -0.73,2.68 -1,6.15 -1.012,8.99 -0.014,2.91 1.671,5.72 2.236,8.6 1.188,5.94 0.562,12.78 0.562,19 0,12.237 4.579,23.312 8.391,34.407 1.65,4.771 4.82,10.103 8.211,13.989 1.771,2.04 4.689,3.027 7.05,4.148 2.5,1.188 4.899,2.129 7.551,2.812 2.851,0.722 6.33,1.353 9.399,1.04 3.068,-0.312 5.72,-1.473 8.8,-1.79 6.271,-0.642 12.729,-0.817 18.801,-0.21 1.108,0.107 6.199,0.312 6.199,0.398"
 id="path496"
 style="fill:none;stroke:#000000;stroke-width:1.5" />
		</g>
	</g>
	<g
 transform="matrix(2.077296,0,0,2.077296,1.2794477,-266.80465)"
 id="left_part_mountain">
		<g
 id="g499">
			<path
 d="m 36.76,168.897 c -0.4,3.646 -3.08,5.896 -6.29,7.47 -2.76,1.351 -5.38,2.69 -8.24,3.84 -3.06,1.229 -5.84,2.511 -7.32,5.62 l -0.04,0.521 c -0.84,-0.08 -1.67,-0.096 -2.5,0.064 -3.75,0.71 -7.4,2.814 -11.37,2.814 l 0,-7.979 0.2,0 c 1.64,-1.92 7.5,-0.67 9.96,-1.87 2.67,-1.312 4.9,-2.96 7.7,-3.92 3.07,-1.062 6.12,-1.771 9.49,-1.92 2.9,-0.142 5.72,-1.37 7.7,-3.688 0.26,-0.291 0.49,-0.612 0.71,-0.952 z"
 id="path501"
 style="fill:#ffffff" />
			<path
 d="m 57.62,108.958 c -0.24,0.72 -0.06,2.23 -0.1,3.15 -0.05,1.01 -0.5,1.89 -0.62,2.84 -0.27,2.19 -0.7,4.3 -0.91,6.41 -0.15,1.56 -0.53,3.09 -0.61,4.68 -0.09,1.68 0.06,3.311 -0.1,4.98 -0.13,1.42 -0.82,2.709 -1.32,4.064 -0.42,1.13 -1.04,2.801 -1.93,3.646 0.29,-2.972 0.05,-5.92 0.48,-8.75 0.49,-3.261 0.43,-6.67 0.93,-10.021 0.45,-3.02 1.59,-6.26 2.98,-9 0.36,-0.73 0.67,-1.42 0.92,-2.11 l 0.28,0.111 z"
 id="path503"
 style="fill:#ffffff" />
			<path
 d="m 73.05,76.138 -2.93,3.03 c -0.05,0.79 0.17,1.55 0.08,2.38 -0.1,0.85 -0.23,1.67 -0.38,2.53 -0.27,1.62 -0.59,3.21 -1.03,4.76 -0.16,0.57 -0.28,1.15 -0.39,1.72 -0.19,0.94 -0.36,1.87 -0.67,2.74 -0.35,0.99 -1.62,3.01 -0.88,4.01 0.92,-1.04 1.66,-2.16 2.24,-3.38 1.31,-2.74 2.62,-5.729 3.27,-8.66 0.33,-1.46 0.6,-3 0.68,-4.55 0.07,-1.33 0.36,-3.211 0.01,-4.58 l 0.02,-0.02 c -0.02,-0.1 0.05,-0.18 -0.08,-0.19 0.02,0.07 0.04,0.139 0.06,0.21 z m -9.72,30.9 c -0.62,1.03 -3.47,7.13 -4.92,6.52 -1.27,-0.54 0,-3.26 0.22,-4.1 0.36,-1.35 0.71,-3.2 0,-4.57 l -0.26,-0.04 c 0.15,-0.97 0.25,-1.98 0.32,-3.08 0.21,-3.14 2.44,-5.01 3.42,-7.91 1.01,-3 0.72,-6.37 2.89,-8.94 0.96,-1.15 2.28,-1.86 3.24,-2.99 1.02,-1.19 1.66,-2.77 2.69,-3.96 1.13,-1.29 2.22,-2.18 3.13,-3.54 0.62,-0.93 1.41,-2.61 2.33,-3.26 0.31,-0.22 0.25,-0.33 0.48,-0.6 6.891,-1.09 1.96,13.01 1.29,15.99 -1.29,5.8 -4.5,10.71 -6.63,16.21 -2.54,6.54 -1.39,12.64 -2.12,19.23 -0.16,1.45 -0.23,2.95 -0.26,4.45 l -0.04,0 c -3.64,4.539 -6.44,9.66 -8.06,15.15 -0.85,2.879 -1.89,5.799 -2.9,8.639 -1,2.841 -1.34,5.621 -2.44,8.438 -0.69,1.771 -1.26,3.303 -2.47,4.883 -0.79,1.041 -3.01,3.17 -2.44,4.527 2.24,-0.96 4.16,-4.67 5.11,-6.736 1.2,-2.609 2.39,-5.174 3.46,-7.83 1.16,-2.871 2.05,-5.67 3.41,-8.49 1.22,-2.528 2.24,-5.211 3.71,-7.68 0.99,-1.66 1.48,-3.33 2.41,-5 l 0.22,0 c -0.01,3.299 -0.16,6.549 -0.95,9.526 -0.51,1.938 -0.85,3.96 -1.09,6.011 -0.56,4.713 -0.64,9.579 -1.33,14.143 -0.48,3.146 -1.61,6 -2.41,9.182 -0.7,2.771 -1.34,5.591 -3.12,8.021 -3.81,5.188 -10.95,6.815 -16.86,7.351 -6.79,0.608 -12.98,-2.431 -19.71,-1.101 -2.01,0.391 -3.13,1.379 -5.4,1.235 -0.15,-0.011 -0.29,-0.021 -0.44,-0.026 l 0.05,-0.66 c -0.21,-1.879 2.12,-1.908 3.36,-2.271 1.45,-0.42 2.85,-0.855 4.27,-1.365 2.93,-1.041 5.57,-1.74 7.93,-3.99 2.41,-2.291 4.81,-6.631 3.96,-9.961 l -0.24,-0.148 c 1.08,-1.852 1.83,-3.938 3.45,-5.512 2.23,-2.17 3.73,-3.479 5.06,-6.538 1.23,-2.83 2.19,-5.359 3,-8.41 0.46,-1.761 1.44,-3.29 2.21,-4.897 l 0.26,0.17 c 0.59,-1.066 1.59,-2.17 2.3,-3.051 1.83,-2.25 3.43,-4.461 4.83,-6.972 0.81,-1.449 1.43,-2.278 1.6,-3.989 0.16,-1.58 0.19,-3.21 0.49,-4.699 0.31,-1.521 0.46,-3 0.63,-4.55 0.19,-1.67 0.67,-3.27 1.02,-4.88 0.34,-1.59 0.72,-3.06 1.19,-4.58 0.26,-0.84 1.38,-3.4 0.74,-4.08 -0.23,0.21 -0.42,0.46 -0.59,0.73 z"
 id="path505"
 style="fill:#ffffff" />
			<path
 d="m 21.22,183.758 c -1.24,0.359 -3.57,0.39 -3.36,2.271 l -0.05,0.66 c -0.98,-0.09 -1.96,-0.261 -2.94,-0.34 l 0.04,-0.521 c 1.48,-3.109 4.26,-4.392 7.32,-5.62 2.86,-1.148 5.48,-2.489 8.24,-3.84 3.21,-1.569 5.89,-3.819 6.29,-7.471 0.14,-0.199 0.26,-0.399 0.37,-0.609 l 0.01,0 0.24,0.148 c 0.85,3.33 -1.55,7.67 -3.96,9.961 -2.36,2.25 -5,2.949 -7.93,3.99 -1.42,0.51 -2.82,0.951 -4.27,1.371 z"
 id="path507" />
			<path
 d="m 73.05,76.138 c -0.02,-0.07 -0.04,-0.14 -0.06,-0.21 0.13,0.01 0.06,0.09 0.08,0.19 l -0.02,0.02 z"
 id="path509" />
			<path
 d="m 57.34,108.857 c 0.51,-1.34 0.82,-2.63 1.03,-4.01 l 0.26,0.04 c 0.71,1.37 0.36,3.22 0,4.57 -0.22,0.84 -1.49,3.56 -0.22,4.1 1.45,0.61 4.3,-5.49 4.92,-6.52 0.17,-0.27 0.36,-0.52 0.59,-0.74 0.64,0.68 -0.48,3.24 -0.74,4.08 -0.47,1.52 -0.85,2.99 -1.19,4.58 -0.35,1.61 -0.83,3.21 -1.02,4.88 -0.17,1.551 -0.32,3.03 -0.63,4.551 -0.3,1.489 -0.33,3.119 -0.49,4.699 -0.17,1.71 -0.79,2.54 -1.6,3.989 -1.4,2.511 -3,4.721 -4.83,6.971 -0.71,0.88 -1.71,1.979 -2.3,3.05 l -0.26,-0.17 c 0.46,-0.96 0.85,-1.949 1.02,-3.029 0.06,-0.391 0.11,-0.775 0.15,-1.16 0.89,-0.851 1.51,-2.521 1.93,-3.646 0.5,-1.356 1.19,-2.646 1.32,-4.065 0.16,-1.67 0.01,-3.303 0.1,-4.979 0.08,-1.59 0.46,-3.12 0.61,-4.68 0.21,-2.11 0.64,-4.22 0.91,-6.41 0.12,-0.95 0.57,-1.83 0.62,-2.84 0.04,-0.92 -0.14,-2.43 0.1,-3.15 l -0.28,-0.111 z"
 id="path511" />
			<path
 d="m 70.12,79.167 2.93,-3.03 c 0.35,1.37 0.06,3.25 -0.01,4.58 -0.08,1.55 -0.35,3.09 -0.68,4.55 -0.65,2.93 -1.96,5.92 -3.27,8.66 -0.58,1.22 -1.32,2.34 -2.24,3.38 -0.74,-1 0.53,-3.02 0.88,-4.01 0.31,-0.87 0.48,-1.8 0.67,-2.74 0.11,-0.57 0.23,-1.15 0.39,-1.72 0.44,-1.55 0.76,-3.14 1.03,-4.76 0.15,-0.86 0.28,-1.68 0.38,-2.53 0.09,-0.83 -0.13,-1.589 -0.08,-2.38 z"
 id="path513" />
			<path
 d="m 69.11,126.447 0.04,0 c -0.04,1.96 -0.01,3.938 -0.03,5.899 l -0.22,0 c -0.93,1.67 -1.42,3.34 -2.41,5 -1.47,2.471 -2.49,5.146 -3.71,7.68 -1.36,2.82 -2.25,5.621 -3.41,8.49 -1.07,2.655 -2.26,5.221 -3.46,7.83 -0.95,2.065 -2.87,5.775 -5.11,6.735 -0.57,-1.354 1.65,-3.485 2.44,-4.524 1.21,-1.58 1.78,-3.11 2.47,-4.886 1.1,-2.815 1.44,-5.601 2.44,-8.438 1.01,-2.84 2.05,-5.76 2.9,-8.643 1.62,-5.484 4.42,-10.603 8.06,-15.143 z"
 id="path515" />
		</g>
		<g
 id="g517">
			<polyline
 points="1,198.438 1,189.237 1,181.258 1,53.188    "
 id="polyline519"
 style="fill:none;stroke:#000000;stroke-width:2" />
			<path
 d="m 1.2,181.258 c 1.64,-1.92 7.5,-0.67 9.96,-1.87 2.67,-1.311 4.9,-2.96 7.7,-3.92 3.07,-1.061 6.12,-1.771 9.49,-1.92 2.9,-0.141 5.72,-1.37 7.7,-3.689 0.26,-0.301 0.49,-0.615 0.71,-0.961 0.14,-0.194 0.26,-0.396 0.37,-0.604 l 0.01,0 c 1.08,-1.854 1.83,-3.938 3.45,-5.51 2.23,-2.175 3.73,-3.479 5.06,-6.54 1.23,-2.83 2.19,-5.359 3,-8.41 0.46,-1.766 1.44,-3.29 2.21,-4.896 0.46,-0.961 0.85,-1.948 1.02,-3.028 0.06,-0.394 0.11,-0.78 0.15,-1.16 0.29,-2.972 0.05,-5.92 0.48,-8.75 0.49,-3.26 0.43,-6.67 0.93,-10.021 0.45,-3.02 1.59,-6.26 2.98,-9 0.36,-0.729 0.67,-1.42 0.92,-2.11 0.51,-1.34 0.82,-2.63 1.03,-4.01 0.15,-0.97 0.25,-1.98 0.32,-3.08 0.21,-3.14 2.44,-5.01 3.42,-7.91 1.01,-3 0.72,-6.37 2.89,-8.94 0.96,-1.15 2.28,-1.86 3.24,-2.99 1.02,-1.19 1.66,-2.77 2.69,-3.96 1.13,-1.29 2.22,-2.18 3.13,-3.54 0.62,-0.93 1.41,-2.61 2.33,-3.26 0.31,-0.22 0.25,-0.33 0.48,-0.6 6.89,-1.09 1.96,13.01 1.29,15.99 -1.29,5.8 -4.5,10.71 -6.63,16.21 -2.54,6.54 -1.39,12.64 -2.12,19.23 -0.16,1.45 -0.23,2.95 -0.26,4.45 -0.04,1.96 -0.01,3.938 -0.03,5.897 -0.01,3.302 -0.16,6.552 -0.95,9.527 -0.51,1.938 -0.85,3.96 -1.09,6.014 -0.56,4.709 -0.64,9.578 -1.33,14.141 -0.48,3.148 -1.61,6 -2.41,9.181 -0.7,2.771 -1.34,5.593 -3.12,8.021 -3.81,5.188 -10.95,6.815 -16.86,7.351 -6.79,0.61 -12.98,-2.431 -19.71,-1.101 -2.01,0.391 -3.13,1.381 -5.4,1.239 -0.15,-0.015 -0.29,-0.021 -0.44,-0.028 -0.98,-0.091 -1.96,-0.261 -2.94,-0.341 -0.84,-0.079 -1.67,-0.092 -2.5,0.065 -3.75,0.71 -7.4,2.819 -11.37,2.819 -0.15,0 -0.29,0 -0.44,-0.014"
 id="path521"
 style="fill:none;stroke:#000000;stroke-width:1.5" />
		</g>
	</g>
	<line
 id="mountain_top"
 x1="166.83325"
 y1="-118.29303"
 x2="179.41681"
 y2="-118.29303"
 style="fill:none;stroke:#000000;stroke-width:3.11593342" />
	<g
 transform="matrix(2.077296,0,0,2.077296,1.2794477,-266.80465)"
 id="left_stroke_mountain">
		<g
 id="g525">
			<path
 d="m 73.75,109.478 c -0.87,1.58 -0.75,3.31 -0.82,5.15 -0.07,1.87 -0.31,3.64 -0.12,5.51 0.37,3.589 0.58,7.41 0.59,11.009 0.01,3.621 -1.01,7.211 -1.18,10.771 -0.08,1.829 -0.33,3.601 -0.7,5.392 -0.39,1.879 -0.92,3.354 -0.81,5.394 0.1,2.05 -0.22,4.471 0.14,6.526 0.16,0.934 0.59,1.91 0.79,2.84 0.21,0.974 0.17,2.021 0.35,3 0.13,-1.51 0.36,-3.551 0.36,-5.221 -0.01,-1.855 -0.33,-3.681 -0.15,-5.539 0.19,-1.938 0.2,-3.781 0.37,-5.711 0.16,-1.74 0.93,-3.511 1.18,-5.271 1.04,-7.263 1.36,-15.029 1.28,-22.61 -0.01,-1.81 -1.07,-3.479 -1.17,-5.27 -0.09,-1.61 0.87,-4.5 0.01,-5.85 l -0.12,-0.12 z m 0,50.95 c -0.18,1.81 -0.56,3.54 -0.82,5.271 -0.2,1.368 -0.71,3.75 -1.97,4.438 -0.37,-1.069 -0.55,-1.96 -0.61,-3.146 -0.08,-1.854 -0.46,-3.609 -0.81,-5.393 -0.37,-1.857 -0.13,-3.58 -0.24,-5.5 -0.2,-3.58 0.06,-7.647 0.96,-11.104 1.81,-6.893 1.84,-14.852 1.15,-21.932 -0.35,-3.568 -0.89,-7.604 0.03,-11.108 0.84,-3.2 2.96,-5.71 4.28,-8.76 l 0.14,0.07 c 0.57,-0.03 0.5,0.83 0.47,1.41 -0.1,1.91 -0.94,3.67 -0.94,5.62 0.01,1.81 0.02,3.83 0.44,5.5 0.9,3.64 0.67,7.87 0.5,11.603 -0.18,3.789 0.59,7.803 -0.32,11.479 -0.43,1.71 -0.9,3.393 -1.09,5.146 -0.19,1.883 -1.35,3.343 -1.17,5.147 0.36,3.568 0.36,7.568 0,11.259 z"
 id="path527" />
			<path
 d="m 72.93,114.627 c 0.07,-1.84 -0.05,-3.57 0.82,-5.15 l 0.12,0.12 c 0.86,1.35 -0.1,4.24 -0.01,5.85 0.1,1.79 1.16,3.46 1.17,5.27 0.08,7.581 -0.24,15.351 -1.28,22.61 -0.25,1.761 -1.02,3.529 -1.18,5.271 -0.17,1.93 -0.18,3.77 -0.37,5.709 -0.18,1.855 0.14,3.68 0.15,5.541 0,1.67 -0.23,3.709 -0.36,5.219 -0.18,-0.979 -0.14,-2.029 -0.35,-3 -0.2,-0.935 -0.63,-1.909 -0.79,-2.84 -0.36,-2.062 -0.04,-4.479 -0.14,-6.529 -0.11,-2.04 0.42,-3.51 0.81,-5.391 0.37,-1.789 0.62,-3.562 0.7,-5.395 0.17,-3.562 1.19,-7.146 1.18,-10.771 -0.01,-3.603 -0.22,-7.42 -0.59,-11.012 -0.19,-1.861 0.05,-3.631 0.12,-5.502 z"
 id="path529"
 style="fill:#ffffff" />
		</g>
	</g>
	<g
 transform="matrix(2.077296,0,0,2.077296,1.2794477,-266.80465)"
 id="middle_stroke_mountain">
		<g
 id="g532">
			<path
 d="m 79.96,138.298 c 0.31,1.43 0.67,2.811 0.82,4.33 0.31,3.311 0.07,6.71 0.24,10.069 0.19,3.84 0.75,7.03 1.719,10.569 0.471,1.67 0.671,3.34 1.181,4.92 0.36,1.131 1.819,3.931 0.72,5.021 -2.51,-1.579 -4,-4.89 -5.04,-7.619 -1.26,-3.33 -2.17,-6.761 -2.66,-10.2 -0.5,-3.479 -0.98,-7.101 -0.85,-10.771 0.07,-1.841 0.85,-3.66 0.94,-5.511 0.05,-1.062 -0.49,-4.854 1.05,-4.92 l 0.24,-0.015 c 1.16,0.767 1.38,2.906 1.64,4.127 z m 1.05,24.478 c -0.49,-1.629 -0.97,-3.312 -1.05,-5.039 -0.19,-3.75 -0.15,-7.721 -0.7,-11.359 -0.25,-1.602 0.19,-3.23 -0.36,-4.811 l 0,-0.11 c -2.37,-0.449 -1.06,8.801 -0.93,10.069 0.33,3.371 0.82,6.801 1.63,10.08 0.46,1.815 0.87,4.471 2.469,5.681 0.871,-0.88 -0.739,-3.431 -1.059,-4.511 z"
 id="path534" />
			<path
 d="m 79.96,157.737 c 0.08,1.729 0.56,3.41 1.05,5.039 0.32,1.08 1.93,3.631 1.059,4.511 -1.599,-1.21 -2.009,-3.859 -2.469,-5.681 -0.81,-3.279 -1.3,-6.709 -1.63,-10.08 -0.13,-1.271 -1.44,-10.521 0.93,-10.069 l 0,0.11 c 0.55,1.58 0.11,3.209 0.36,4.811 0.55,3.641 0.51,7.609 0.7,11.359 z"
 id="path536"
 style="fill:#ffffff" />
		</g>
	</g>
	<g
 transform="matrix(2.077296,0,0,2.077296,1.2794477,-266.80465)"
 id="fish_left">
		<g
 id="g539">
			<path
 d="m 59.67,189.128 c 0.69,-0.74 1.06,-1.609 1.41,-2.551 0.6,-1.62 1.44,-3.01 2.28,-4.59 0.83,-1.551 1.74,-2.92 2.91,-4.29 1.1,-1.3 2.02,-2.8 3.56,-3.58 l 0.04,0.069 c 0.71,0.181 0.28,2.105 0.26,2.688 -0.05,1.021 -0.36,2.104 -0.64,3.062 -0.5,1.631 -1.73,2.971 -2.63,4.438 -0.92,1.5 -2.22,2.723 -3.5,3.92 -0.7,0.646 -3.24,3.92 -4.35,3 -0.72,-0.597 0.23,-1.717 0.66,-2.166 z"
 id="path541"
 style="fill:#ffffff" />
			<path
 d="m 63.25,180.037 c 0,-0.39 0.79,-1.239 1.05,-1.601 0.41,-0.58 0.75,-1.16 1.15,-1.739 0.54,-0.771 1.19,-1.41 1.8,-2.13 0.62,-0.74 1.19,-1.551 2.12,-1.881 1.07,-0.379 1.88,0 2.01,1.121 0.1,0.944 0.05,2.18 -0.08,3.064 -0.3,1.979 -0.71,3.71 -1.55,5.562 -0.75,1.659 -2.14,3.17 -3.33,4.551 -1.21,1.41 -2.62,2.699 -3.92,4.021 -0.72,0.722 -1.08,1.29 -1.55,2.183 -0.34,0.647 -0.91,1.817 -1.77,1.629 -1.01,-0.229 -0.74,-1.656 -0.74,-2.438 0,-1.394 -0.66,-1.198 -1.81,-1.312 -0.66,-0.066 -2.61,-0.271 -1.83,-1.33 0.52,-0.719 1.93,-0.709 2.7,-0.938 1.64,-0.5 2.39,-2.729 3.14,-4.091 0.46,-0.852 0.84,-1.729 1.22,-2.579 0.17,-0.394 1.28,-1.841 1.33,-2.103 l 0.06,0.011 z m -2.17,6.54 c -0.35,0.939 -0.72,1.811 -1.41,2.551 -0.43,0.449 -1.38,1.569 -0.66,2.17 1.11,0.92 3.65,-2.351 4.35,-3 1.28,-1.199 2.58,-2.42 3.5,-3.92 0.9,-1.471 2.13,-2.811 2.63,-4.439 0.28,-0.961 0.59,-2.041 0.64,-3.061 0.02,-0.58 0.45,-2.511 -0.26,-2.689 l -0.04,-0.065 c -1.54,0.774 -2.46,2.274 -3.56,3.58 -1.17,1.364 -2.08,2.735 -2.91,4.287 -0.84,1.576 -1.68,2.966 -2.28,4.586 z"
 id="path543" />
		</g>
	</g>
	<g
 transform="matrix(2.077296,0,0,2.077296,1.2794477,-266.80465)"
 id="fish_middle">
		<g
 id="g546">
			<path
 d="m 77.98,195.019 c -0.82,0.34 -1.54,1.59 -2.48,1.604 -2.38,0.04 -0.29,-3.688 -0.27,-4.938 0.04,-4.093 -2.76,-7.423 -2.77,-11.74 0,-2.079 0.86,-4.147 1.63,-5.971 0.36,-0.857 0.58,-1.699 1.54,-2.039 0.81,-0.278 2.11,0.026 2.32,0.697 l 0.04,-0.011 c 2.38,3.29 2.27,7.606 2.07,11.603 -0.09,1.812 -0.75,4.971 0,6.643 0.44,1 3.759,2.971 1.39,4 -0.98,0.42 -2.43,-0.268 -3.47,0.152 z m 0.42,-5.831 c -0.35,-3.381 0.39,-6.36 0.07,-9.516 -0.47,-1.904 -0.09,-4.061 -1.55,-5.574 -1.89,-1.961 -2.19,2.314 -2.49,3.52 -1.11,4.4 1.23,7.87 2.03,11.99 0.22,1.1 -0.51,4.25 0.15,4.85 0.59,-0.439 0.87,-1.279 1.62,-1.43 0.5,-0.09 1.62,0.949 1.94,0.311 0.21,-0.401 -1.69,-3.352 -1.77,-4.151 z"
 id="path548" />
			<path
 d="m 80.17,193.338 c -0.32,0.64 -1.44,-0.399 -1.94,-0.312 -0.75,0.146 -1.03,0.99 -1.62,1.431 -0.66,-0.601 0.07,-3.75 -0.15,-4.851 -0.8,-4.119 -3.14,-7.59 -2.03,-11.989 0.3,-1.199 0.6,-5.479 2.49,-3.521 1.46,1.521 1.08,3.67 1.55,5.575 0.32,3.149 -0.42,6.136 -0.07,9.515 0.08,0.801 1.98,3.752 1.77,4.152 z"
 id="path550"
 style="fill:#ffffff" />
		</g>
	</g>
	<g
 transform="matrix(2.077296,0,0,2.077296,1.2794477,-266.80465)"
 id="fish_right">
		<g
 id="g553">
			<path
 d="m 92.94,190.817 c -0.562,-0.78 -1.5,-1.189 -2.28,-1.729 -1.45,-1.021 -2.771,-1.881 -3.87,-3.341 -2.12,-2.84 -4.27,-6.84 -3.391,-10.479 1.811,-0.201 3.99,1.67 4.841,3.114 0.72,1.216 1.53,2.466 2.03,3.78 0.6,1.525 1.449,2.579 2.188,4.039 0.553,1.105 0.852,2.354 1.521,3.396 0.49,0.764 0.938,1.42 1.815,1.803 0.854,0.367 2.216,-0.027 2.646,0.961 -0.67,0.841 -1.646,0.406 -2.5,0.828 -0.854,0.422 -0.59,1.237 -1.381,1.812 -0.521,-0.396 -0.619,-0.933 -0.799,-1.526 -0.271,-0.917 -0.23,-1.837 -0.82,-2.658 z"
 id="path555"
 style="fill:#ffffff" />
			<path
 d="m 96.94,190.537 c 1.229,0.729 3.77,0.801 2.43,2.771 -0.59,0.854 -1.38,0.92 -2.18,1.271 -1.41,0.63 -0.801,1 -1.621,2.08 -1.521,1.988 -2.299,-2.131 -2.67,-3.182 -1.219,-3.479 -5.369,-4.344 -7.42,-7.629 -0.989,-1.595 -1.719,-3.371 -2.379,-5.08 -0.58,-1.5 -1.746,-3.895 -1.496,-5.5 0.75,-4.765 7.285,2.289 8.26,3.84 l 0.077,-0.051 c 1.603,2.479 2.578,5.471 3.893,8.102 0.687,1.367 1.776,2.578 3.106,3.378 z m -2.961,-0.931 c -0.67,-1.049 -0.974,-2.289 -1.521,-3.399 -0.738,-1.46 -1.59,-2.51 -2.188,-4.039 -0.5,-1.319 -1.312,-2.569 -2.031,-3.78 -0.85,-1.449 -3.029,-3.32 -4.84,-3.119 -0.879,3.645 1.271,7.645 3.391,10.479 1.1,1.46 2.42,2.319 3.87,3.341 0.78,0.54 1.72,0.949 2.28,1.729 0.59,0.82 0.549,1.74 0.815,2.66 0.185,0.604 0.279,1.129 0.804,1.529 0.791,-0.57 0.525,-1.391 1.381,-1.811 0.854,-0.42 1.83,0.01 2.5,-0.83 -0.435,-0.989 -1.791,-0.59 -2.646,-0.96 -0.874,-0.38 -1.324,-1.039 -1.815,-1.8 z"
 id="path557" />
		</g>
	</g>
	<g
 transform="matrix(2.077296,0,0,2.077296,1.2794477,-266.80465)"
 id="wave_no1__x28__x2B__some_outlines_x29_">
		<g
 id="g560">
			<path
 d="m 99.31,228.129 c 0,0 -1.55,0.021 -3.289,0.319 -0.121,0.021 -0.229,0.05 -0.351,0.07 0,0 -2.021,-1.271 -5.31,-2.23 -2.57,-0.739 -5.78,-1.398 -9,-1.43 -2.85,-0.03 -5.7,0.521 -8.04,1.199 -3.3,0.961 -5.43,2.471 -5.43,2.471 l -0.1,0.311 c -0.03,-0.011 -0.05,-0.021 -0.08,-0.029 -0.27,-0.08 -0.55,-0.16 -0.84,-0.24 -0.08,-0.025 -0.16,-0.051 -0.25,-0.065 -1.03,-0.26 -2.07,-0.396 -2.9,-0.438 -0.02,0 -0.03,0 -0.05,0 -0.51,-0.039 -0.93,-0.051 -1.23,-0.051 -0.21,0.012 -0.41,0.012 -0.58,0.012 l -0.44,0 -4.01,0 0,-0.104 c 0,0 3.55,-2.62 8.85,-4.471 4.52,-1.594 10.22,-2.96 15.75,-2.83 11.604,0.271 22.379,7.396 22.379,7.396 l 0,0.09 -0.225,0 -1.75,0.014 -3.104,0.006 z"
 id="path562"
 style="fill:#ffffff" />
			<path
 d="m 95.67,228.519 c -0.42,0.09 -0.851,0.186 -1.29,0.301 -0.82,0.209 -1.66,0.479 -2.449,0.812 -0.541,0.223 -1.08,0.46 -1.601,0.699 -0.53,0.25 -1.05,0.5 -1.53,0.761 -0.48,0.263 -0.93,0.513 -1.34,0.771 -0.54,0.344 -1.029,0.674 -1.47,1.029 -0.66,0.529 -1.25,1.119 -1.771,1.729 -0.32,0.37 -0.609,0.737 -0.885,1.103 -1.104,1.5 -1.79,2.868 -2.06,3.461 -0.16,-0.371 -0.48,-1.013 -1.09,-1.817 -0.57,-0.791 -1.28,-1.689 -2.27,-2.65 -1.02,-1.026 -2.27,-2.065 -3.64,-2.97 -1.06,-0.684 -2.18,-1.264 -3.34,-1.75 -0.35,-0.146 -0.7,-0.29 -1.05,-0.421 -0.72,-0.271 -1.43,-0.513 -2.1,-0.729 l 0.1,-0.312 c 0,0 2.13,-1.513 5.43,-2.474 2.34,-0.682 5.19,-1.229 8.04,-1.199 3.22,0.029 6.43,0.688 9,1.433 3.295,0.952 5.316,2.223 5.316,2.223 z"
 id="path564"
 style="fill:#2ab6f2;fill-opacity:1" />
		</g>
		<g
 id="g566">
			<polyline
 points="40.16,228.028 56.893,228.019 57.558,228.019 61.603,228.019         "
 id="polyline568"
 style="fill:none;stroke:#000000;stroke-width:2" />
			<path
 d="m 81.41,239.528 c 0,0 -0.03,-0.131 -0.13,-0.354 -0.16,-0.366 -0.48,-1.01 -1.09,-1.815 -0.57,-0.791 -1.28,-1.688 -2.27,-2.649 -1.02,-1.028 -2.27,-2.067 -3.64,-2.971 -1.06,-0.681 -2.18,-1.261 -3.34,-1.75 -0.35,-0.148 -0.7,-0.289 -1.05,-0.421 -0.72,-0.271 -1.43,-0.51 -2.1,-0.729 -0.03,-0.011 -0.05,-0.021 -0.08,-0.027 -0.27,-0.08 -0.55,-0.16 -0.84,-0.24 -0.08,-0.027 -0.16,-0.051 -0.25,-0.067 -1.03,-0.26 -2.07,-0.394 -2.9,-0.438 -0.02,0 -0.03,0 -0.05,0 -0.51,-0.039 -0.93,-0.051 -1.23,-0.051 -0.21,0.012 -0.41,0.012 -0.58,0.012 l -0.44,0"
 id="path570"
 style="fill:none;stroke:#000000;stroke-width:2" />
			<path
 d="m 81.13,239.498 c 0,0 0.05,-0.108 0.15,-0.319 0.27,-0.59 0.959,-1.96 2.06,-3.46 0.271,-0.36 0.56,-0.729 0.88,-1.101 0.52,-0.609 1.11,-1.199 1.77,-1.729 0.441,-0.361 0.936,-0.69 1.476,-1.031 0.41,-0.26 0.854,-0.51 1.343,-0.771 0.479,-0.261 1,-0.511 1.527,-0.761 0.521,-0.239 1.062,-0.479 1.604,-0.699 0.789,-0.33 1.629,-0.603 2.445,-0.812 0.438,-0.119 0.87,-0.209 1.29,-0.299 0.12,-0.021 0.229,-0.055 0.354,-0.07 1.738,-0.301 3.289,-0.318 3.289,-0.318"
 id="path572"
 style="fill:none;stroke:#000000;stroke-width:2" />
			<polyline
 points="99.06,228.129 99.31,228.129 102.42,228.118 104.17,228.108      104.39,228.108 128.67,228.019    "
 id="polyline574"
 style="fill:none;stroke:#000000;stroke-width:2" />
			<path
 d="m 95.67,228.519 c -8.271707,-3.97499 -20.90525,-4.20171 -27.78,0.009"
 id="path576"
 style="fill:none;stroke:#000000;stroke-width:2" />
			<path
 d="m 57.41,227.919 c 7.741732,-4.57157 16.625567,-7.51278 24.6,-7.301 11.603073,0.30814 22.379,7.4 22.379,7.4"
 id="path578"
 style="fill:none;stroke:#000000;stroke-width:2" />
		</g>
	</g>
	<g
 transform="matrix(2.077296,0,0,2.077296,1.2794477,-266.80465)"
 id="upper_ending">
		<g
 id="g581">
			<path
 d="m 84.239,87.658 c -0.199,2.32 -0.329,4.76 -0.42,7.06 l -0.379,0.05 c -0.08,-0.55 -0.312,-1.65 -0.9,-1.57 -0.68,0.09 -1.73,1.36 -2.2,1.99 l -0.26,-0.24 c 0.62,-2.38 1.04,-4.82 1.68,-7.23 0.34,-1.26 0.74,-2.33 0.879,-3.7 0.1,-0.89 0.405,-2.68 1.121,-3.25 1.61,1.02 0.61,5.33 0.479,6.89 z"
 id="path583" />
		</g>
	</g>
	<g
 transform="matrix(2.077296,0,0,2.077296,1.2794477,-266.80465)"
 id="cipher_1_black">
		<g
 id="g586">
			<polygon
 points="23.003,87.24 23.003,87.24 23.003,93.039 19.883,93.039 19.883,92.979 "
 id="polygon588" />
			<rect
 width="5.1430001"
 height="16.561001"
 x="23.003"
 y="87.239998"
 id="rect590" />
		</g>
	</g>
	<g
 transform="matrix(2.077296,0,0,2.077296,1.2794477,-266.80465)"
 id="cipher_1_white">
		<g
 id="g593">
			<polygon
 points="26.68,102.297 24.37,102.297 24.37,91.748 21.94,91.728 23.6,88.678 26.66,88.697 26.66,88.697 "
 id="polygon595"
 style="fill:#ffffff" />
		</g>
	</g>
	<g
 transform="matrix(2.077296,0,0,2.077296,1.2794477,-266.80465)"
 id="cipher_7_black">
		<g
 id="g598">
			<path
 d="m 33.42,96.406 c 0.56,-2.216 1.52,-3.283 1.98,-3.696 l 6.46,0 c 0,0 -2.14,1.955 -3.05,4.693 -0.97,2.88 -0.71,6.365 -0.71,6.365 l -5.5,0 c 0,0 0.11,-4.643 0.82,-7.362 z"
 id="path600" />
			<polygon
 points="29.55,87.098 41.86,87.098 41.86,92.762 35.4,92.762 35.4,92.762 29.55,92.762 "
 id="polygon602" />
		</g>
	</g>
	<g
 transform="matrix(2.077296,0,0,2.077296,1.2794477,-266.80465)"
 id="cipher_7_white">
		<g
 id="g605">
			<path
 d="m 34.13,102.308 c 0,0 -0.01,-3.21 0.97,-5.95 0.91,-2.55 2.82,-4.63 2.82,-4.63 l -6.79,-0.02 0,-3 0,-0.11 9.04,0 0.01,3.13 c 0,0 -1.82,2.18 -2.73,4.75 -0.95,2.72 -0.99,5.83 -0.99,5.83 l -2.33,0 z"
 id="path607"
 style="fill:#ffffff" />
		</g>
	</g>
	<g
 transform="matrix(2.077296,0,0,2.077296,1.2794477,-266.80465)"
 id="g609">
		<g
 id="XMLID_1_">
			<g
 id="g612">
				<polygon
 points="121.726,95.468 121.726,93.648 122.416,92.258 127.046,88.898 127.046,95.468 129.315,95.468 129.315,95.468 129.315,100.788 127.046,100.788 127.046,104.578 121.726,104.578 121.726,100.788 112.546,100.788 112.526,100.778 119.166,87.918 124.546,87.958 122.416,92.258 121.726,92.758 121.726,93.648 120.826,95.468 "
 id="polygon614" />
				<polygon
 points="121.538,92.759 122.682,92.102 122.682,92.102 121.538,93.929 "
 id="polygon616" />
			</g>
		</g>
	</g>
	<g
 transform="matrix(2.077296,0,0,2.077296,1.2794477,-266.80465)"
 id="cipher_4_white">
		<g
 id="g619">
			<path
 d="m 121.625,89.4375 -5.15625,9.84375 8.15625,0 0.0937,0 0,3.78125 c 0.211,0 1.375,0.0312 1.875,0.0312 0.3145,0 0.43262,-0.0235 0.46875,-0.0312 l 0,-3.78125 0.0625,0 2.15625,0 0,-2.3125 -2.15625,0 -0.0625,0 0,-5.4375 -2.375,1.71875 0.0312,3.75 -0.125,0 -4.375,0 3.53125,-7.5625 -2.125,0 z"
 transform="translate(-1.4990017,0)"
 id="polygon621"
 style="fill:#ffffff" />
			
			
			
			
		</g>
	</g>
	
	
<g
 transform="matrix(2.077296,0,0,2.077296,2.344991,-266.80259)"
 id="cipher_2_black">
		<g
 id="g632">
			<path
 d="m 133.3,94.107 c -0.14,0.19 -0.23,0.36 -0.32,0.52 -0.16,0.32 -0.31,0.58 -0.379,0.7 l -0.041,-0.01 -3.188,-2.26 0,-0.07 c 0,0 0.357,-1.57 1.47,-2.94 0.171,-0.2 0.36,-0.39 0.562,-0.59 0.74,-0.69 1.648,-1.32 2.611,-1.73 0.447,-0.19 0.907,-0.33 1.357,-0.41 0.25,-0.05 0.5,-0.07 0.75,-0.08 0.607,0 1.238,0.16 1.818,0.43 0.521,0.25 1.029,0.57 1.512,0.94 0.34,0.27 0.64,0.57 0.898,0.86 0.389,0.45 0.606,0.93 0.76,1.39 0.342,1.03 0.312,2.27 0.312,2.27 0,0 0.021,0.41 -0.067,0.98 -0.041,0.27 -0.121,0.57 -0.262,0.89 -0.148,0.34 -0.359,0.67 -0.641,0.99 -0.271,0.3 -0.58,0.6 -0.91,0.86 -0.71,0.59 -1.529,1.02 -2.107,1.37 -0.647,0.41 -0.541,1.03 -0.541,1.03 l 4.5,0 0.01,0.01 0.021,5.22 -0.029,0.04 -11.289,-0.02 c -0.01,-0.16 -0.067,-1.51 0.183,-3.04 0.157,-0.96 0.471,-2.01 1.116,-2.9 0.725,-0.98 1.771,-1.79 2.771,-2.45 0.396,-0.25 0.803,-0.45 1.184,-0.64 0.58,-0.29 0.908,-0.58 1.102,-0.8 0.107,-0.13 0.17,-0.22 0.198,-0.29 0.012,-0.02 0.021,-0.05 0.052,-0.09 0.027,-0.05 0.068,-0.12 0.102,-0.18 0.028,-0.04 0.039,-0.07 0.039,-0.09 0.021,-0.05 0.029,-0.08 0.029,-0.08 l 0.021,-0.02 c 0,0 0.029,-0.07 0.062,-0.19 0.021,-0.08 0.039,-0.18 0.052,-0.29 0,-0.08 0,-0.17 -0.021,-0.26 -0.01,-0.05 -0.02,-0.1 -0.038,-0.15 -0.052,-0.15 -0.121,-0.29 -0.229,-0.42 -0.105,-0.13 -0.25,-0.24 -0.396,-0.33 -0.198,-0.11 -0.432,-0.16 -0.659,-0.12 -0.106,0.02 -0.229,0.06 -0.353,0.11 -0.197,0.09 -0.41,0.22 -0.619,0.38 -0.223,0.16 -0.438,0.35 -0.643,0.55 -0.142,0.14 -0.271,0.29 -0.392,0.438 -0.091,0.12 -0.181,0.23 -0.271,0.34 -0.037,0.043 -0.067,0.092 -0.097,0.132 z"
 id="path634" />
		</g>
	</g><g
 transform="matrix(2.077296,0,0,2.077296,2.344991,-266.80259)"
 id="cipher_2_white">
		<g
 id="g637">
			<path
 d="m 138.979,90.188 c 0.471,0.63 0.711,1.43 0.84,2.11 0.041,0.19 0.07,0.35 0.07,0.48 0.01,0.23 0.021,0.33 0.021,0.33 0,0 0.021,0.34 -0.011,0.62 -0.021,0.24 -0.069,0.54 -0.16,0.83 -0.029,0.09 -0.069,0.18 -0.109,0.28 -0.109,0.19 -0.23,0.38 -0.391,0.55 -0.189,0.2 -0.399,0.39 -0.619,0.55 -0.631,0.45 -1.33,0.89 -1.9,1.35 -0.33,0.24 -0.59,0.5 -0.82,0.77 -0.799,0.95 -0.539,2.69 -0.539,2.69 l 4.521,0 0,2.31 -8.277,0 c 0,0 0.021,-0.48 0.027,-0.54 -0.01,-0.21 0.053,-0.87 0.223,-1.61 0.119,-0.45 0.237,-0.92 0.397,-1.27 0.09,-0.2 0.188,-0.38 0.3,-0.5 0.021,-0.02 0.03,-0.04 0.053,-0.05 0.188,-0.23 0.438,-0.44 0.697,-0.67 0.83,-0.67 1.852,-1.32 2.78,-2.04 0.278,-0.22 0.55,-0.45 0.8,-0.72 0.223,-0.21 0.398,-0.39 0.562,-0.55 0.26,-0.29 0.396,-0.63 0.459,-0.97 0.121,-0.54 0.07,-0.96 0.07,-0.96 0,0 -0.029,-0.7 -0.42,-1.34 -0.135,-0.21 -0.305,-0.41 -0.5,-0.56 -0.345,-0.26 -0.75,-0.43 -1.185,-0.43 -0.41,0.01 -0.896,0.15 -1.345,0.37 -0.35,0.18 -0.631,0.4 -0.881,0.62 -0.58,0.57 -0.879,1.11 -0.938,1.21 l -1.479,-0.92 -0.029,-0.03 c 0,0 0.22,-0.81 0.789,-1.39 0.24,-0.26 0.531,-0.52 0.82,-0.75 0.26,-0.21 0.525,-0.4 0.775,-0.54 0.37,-0.2 0.771,-0.35 1.188,-0.45 0.32,-0.07 0.644,-0.11 0.974,-0.12 0.34,-0.01 0.659,0.03 0.989,0.08 0.287,0.04 0.566,0.15 0.857,0.28 0.278,0.13 0.528,0.28 0.778,0.43 0.01,0 0.021,0.01 0.021,0.02 0.253,0.13 0.432,0.32 0.592,0.53 z"
 id="path639"
 style="fill:#ffffff" />
		</g>
	</g></g>
</svg>