<?xml version="1.0" encoding="UTF-8" standalone="no"?>
<!-- Created with Inkscape (http://www.inkscape.org/) -->

<svg
   xmlns:svg="http://www.w3.org/2000/svg"
   xmlns="http://www.w3.org/2000/svg"
   version="1.1"
   width="435"
   height="480"
   id="svg3444">
  <defs
     id="defs3448" />
  <path
     d="m 214.06619,446.12549 c -3.48599,-6.10546 -11.96197,2.27779 -18.28863,-1.52821 -12.4502,-7.48985 -11.03571,-8.65312 -91.92774,-9.19306 -86.83197,-0.57962 -79.58206,-2.30747 -89.2957,-16.74238 -6.71855,-9.98408 -2.25932,18.82532 -2.25932,-209.79919 0,-207.318495 -10.5,-180.318495 207.01152,-180.318495 217.51152,0 208.01152,-28 207.75,181.749995 -0.29645,237.76952 -10.32475,201.89649 -19.92285,212.30919 -9.90649,10.74728 1.85352,-4.68578 -86.35929,-4.13215 -70.02061,0.43946 -62.02061,2.93946 -68.87925,5.42901 -11.82358,4.29173 -20.52232,3.39679 -28.30337,15.71339 -3.42098,5.41507 -6.6937,11.47137 -9.52537,6.5119 z"
     id="path3492"
     style="fill:#ffffff" />
  <path
     d="m 214.27139,476.08134 c -3.48599,-6.10546 -17.46197,-20.22221 -23.78863,-24.02822 -12.4502,-7.48985 -8.53571,-7.15311 -89.42774,-7.69306 C 14.223047,443.78045 15.972956,444.0526 6.2593248,429.61769 -0.45922737,419.63361 0,435.94301 0,207.3185 L 0,0 217.51152,0 435.02304,0 434.76152,209.75 434.5,419.5 l -2.20147,4.7197 c -4.87008,10.44085 -15.23532,18.27398 -25.4828,19.25763 -2.92365,0.28064 -36.82501,0.70801 -75.33635,0.94971 l -70.02061,0.43946 -6.85864,2.48955 c -11.82358,4.29173 -25.52232,15.89679 -33.30337,28.21339 -3.42098,5.41507 -4.1937,5.47137 -7.02537,0.5119 z M 168.87197,334.00659 c 1.44542,0.004 3.97803,0.90066 5.62803,1.99341 3.77155,2.4978 5.98062,2.51938 8.41777,0.0822 2.4294,-2.4294 12.32392,-3.80693 16.37125,-2.27924 1.67225,0.63121 3.7819,0.74239 5.04296,0.26577 1.19241,-0.45067 7.11802,-0.89893 13.16802,-0.99613 15.05059,-0.24181 15.15008,-0.2785 16.01587,-5.90567 0.98642,-6.41119 0.60578,-19.75529 -0.71366,-25.01873 -1.23859,-4.94097 -0.38064,-6.10631 4.51518,-6.13292 3.94453,-0.0214 1.95077,-6.10544 -4.75675,-14.51531 -2.91919,-3.66008 -3.07686,-4.21245 -1.8553,-6.5 0.73763,-1.38131 1.09604,-3.87932 0.80096,-5.58245 -0.65594,-3.78589 1.41033,-5.8805 6.7437,-6.8362 2.52025,-0.45161 3.75,-1.20518 3.75,-2.29792 0,-5.54443 4.5771,-6.31413 10.10141,-1.6987 4.18661,3.49781 5.44732,3.76554 10.89859,2.31454 0.97658,-0.25995 2.18538,1.07592 3.46413,3.82831 1.88554,4.0584 2.1096,4.20431 5.59916,3.64631 5.02872,-0.80413 8.93143,1.46288 13.50793,7.84651 2.08175,2.90378 5.9291,7.43212 8.54968,10.06298 16.28658,16.35054 12.61953,31.69146 -6.1209,25.6065 -13.92971,-4.52293 -15.50068,-4.72027 -19.79966,-2.48722 -1.48519,0.77147 -4.05034,3.57085 -5.70034,6.22086 -1.65,2.65001 -4.46178,7.01295 -6.24839,9.69543 -3.59896,5.4036 -3.47421,6.68105 0.65242,6.68105 1.5323,0 3.59669,0.89581 4.58755,1.99069 1.62203,1.79233 1.91744,1.8322 2.96459,0.40013 1.8491,-2.52879 13.63456,-3.15724 15.94172,-0.85007 1.40382,1.40382 1.95452,1.50707 2.58627,0.48488 1.47555,-2.38749 10.79345,-2.56617 13.90375,-0.26663 2.06245,1.52484 3.18592,1.77918 4.53186,1.02596 1.62855,-0.91138 11.38497,-1.12441 17.58023,-0.38385 1.375,0.16436 3.89684,-0.0795 5.60408,-0.54192 l 3.10408,-0.84075 0.55087,-9.99715 c 0.62499,-11.3421 2.95302,-17.61197 7.82846,-21.08359 3.53743,-2.51887 3.32151,-4.03038 -2.1401,-14.98142 -4.53306,-9.0892 -5.18843,-12.59119 -3.54327,-18.93345 1.03478,-3.98918 1.01221,-5.28918 -0.12964,-7.4685 C 328.8778,257.88868 329.34823,254 331.06739,254 333.24438,254 336,249.84484 336,246.56217 c 0,-2.97773 0.87857,-4.21569 6.56467,-9.25 3.61056,-3.19669 7.70332,-7.72467 9.09502,-10.06217 3.12971,-5.25668 3.34031,-5.26118 3.34031,-0.0714 0,3.91971 -0.49568,4.65217 -8,11.82138 -9.54849,9.1221 -10.1626,11.45528 -4.31398,16.38997 2.02732,1.71052 7.2353,6.48266 11.57329,10.60476 6.31877,6.0043 8.06589,7.19749 8.78549,6 2.63495,-4.38481 2.61915,-4.37657 5.83321,-3.04526 5.7531,2.38301 24.17914,39.3901 21.13221,42.44218 -1.29167,1.29386 -13.92482,1.67332 -22.3772,0.67214 -4.60188,-0.54508 -6.28397,-0.35727 -7.80081,0.871 -2.14523,1.7371 -7.19871,18.0975 -5.96985,19.32711 1.41436,1.41522 8.13764,4.52865 8.13764,3.7684 0,-1.3862 13.08009,-2.20872 14.63271,-0.92016 1.12396,0.93281 1.69049,0.84814 2.64855,-0.39582 0.96241,-1.24961 4.26846,-1.73124 15.71874,-2.28989 7.975,-0.3891 15.4,-0.81134 16.5,-0.93832 1.1,-0.12697 3.29159,-0.28829 4.87019,-0.35849 l 2.87019,-0.1276 -0.59141,-5.75 c -0.32527,-3.1625 -0.8777,-8.24844 -1.22761,-11.30209 -0.62737,-5.47504 -0.5839,-5.59802 3.13208,-8.86069 4.44184,-3.89999 4.02216,-6.69569 -2.23584,-14.89412 -5.02719,-6.58598 -7.61771,-12.2278 -11.79734,-25.6931 -4.87276,-15.69834 -9.914,-25.96381 -18.1702,-37 -13.57771,-18.14952 -16.13145,-26.96294 -11.01074,-38 3.65382,-7.87536 1.96652,-11.83992 -6.73431,-15.82329 -7.09505,-3.24823 -11.58041,-7.42026 -20.16621,-18.75752 -10.4731,-13.82937 -20.02575,-21.56181 -30.41918,-24.62293 -8.55437,-2.51948 -33.29081,-1.93921 -44.28001,1.03872 -3.16822,0.85854 -11.71822,1.86382 -19,2.23395 -7.78716,0.39582 -14.68101,1.27124 -16.73961,2.12569 -6.64579,2.75842 -14.39175,1.95959 -26.5,-2.73291 -8.26789,-3.20419 -12.69502,-4.34029 -17.82449,-4.57417 -6.03016,-0.27494 -7.24949,-0.68431 -10.4759,-3.51714 -6.24387,-5.48219 -34.52325,-18.45376 -48.91739,-22.43808 -22.51869,-6.233225 -29.60181,-8.568117 -36.442165,-12.012867 l -6.691998,-3.370036 -0.655311,2.983608 c -0.763317,3.475361 -3.968345,5.775926 -4.849111,3.480686 -0.305958,-0.797313 -0.12594,-1.71563 0.400039,-2.040703 2.017895,-1.247127 0.797151,-4.287813 -3.140631,-7.822833 -6.781063,-6.087487 -29.658064,-8.94249 -38.203919,-4.767771 -3.55688,1.737564 -7.054981,2.457709 -13.5,2.779209 -11.644109,0.580848 -15.917508,1.276367 -14.234221,2.316696 1.889866,1.168001 0.638071,3.623561 -2.650787,5.19987 -4.984987,2.389242 -3.859609,5.826125 2.43521,7.437086 14.123711,3.614515 23.789403,14.162975 18.990894,20.725325 -1.030811,1.40972 -1.803259,1.53934 -4.25,0.71315 C 31.845599,117.4984 29.6,117.22469 28.5,117.4455 c -1.1,0.22081 -3.765941,0.43591 -5.924314,0.47799 L 18.651372,118 l 2.315719,2.46497 c 1.30986,1.39428 5.679034,3.58506 10.058845,5.04367 8.363974,2.78546 9.269543,3.51287 13.482053,10.82968 3.825238,6.64414 6.659073,7.83387 10.315529,4.33076 8.957664,-8.58199 23.373557,-0.82332 25.407955,13.67462 l 1.074356,7.6563 3.192098,0 c 4.013653,0 6.321012,2.47794 7.835516,8.41479 1.239972,4.86068 1.343978,4.92395 6.503282,3.95606 5.989415,-1.12362 6.514185,0.34881 6.719095,18.85265 0.25585,23.10369 2.07728,27.16154 8.82033,19.65022 3.48275,-3.87956 3.95591,-4.09252 7.91344,-3.5617 12.46167,1.67146 14.61271,18.00591 4.36845,33.17286 -3.16302,4.68296 -3.25264,5.0594 -1.80502,7.58175 1.4429,2.5141 1.32348,3.05845 -2.26373,10.3184 -3.48695,7.05703 -3.67058,7.84196 -2.31768,9.90675 1.37202,2.09396 0.96465,3.26785 -6.15114,17.72535 -10.71585,21.7719 -13.75726,23.2656 -34.740425,17.06175 -17.031369,-5.03547 -16.363859,-5.07232 -20.051764,1.10684 C 53.768507,315.50123 50.240627,330 53.533725,330 c 0.843549,0 2.49872,1.63554 3.678158,3.63454 1.960389,3.32261 2.209408,3.4589 2.901519,1.58794 1.877555,-5.07551 15.004994,-4.84968 16.132143,0.27752 0.39031,1.77545 0.566839,1.69125 1.572314,-0.75 1.128346,-2.73957 1.17159,-2.75032 11.40739,-2.83333 5.651113,-0.0458 11.399751,-0.22988 12.774751,-0.409 1.375,-0.17911 5.88817,-0.42382 10.02926,-0.54379 l 7.52925,-0.21814 5.31846,-10.28289 c 8.39119,-16.2238 16.54956,-24.51062 21.56763,-21.90721 5.72855,2.97201 7.83933,1.18248 6.89249,-5.8435 -0.59627,-4.42461 1.48713,-6.31767 5.43737,-4.94061 l 2.81624,0.98175 1.24662,-6.57162 c 1.18697,-6.25713 5.49034,-16.5303 8.60949,-20.5529 2.37952,-3.06872 6.36567,-1.19061 13.6875,6.44899 3.64887,3.80724 7.08629,6.92225 7.63871,6.92225 0.55242,0 1.29979,1.57457 1.66082,3.49905 0.36104,1.92448 3.61044,9.17441 7.22089,16.11096 9.70241,18.64067 5.94592,22.96227 -15.15473,17.4346 l -8,-2.09573 -7.15172,3.53161 c -11.8128,5.83332 -16.77005,14.11287 -11.37381,18.99641 1.08596,0.98278 2.27427,2.73144 2.64069,3.88592 l 0.66621,2.09906 1.48129,-2.23094 c 0.91001,-1.37056 2.49481,-2.2284 4.10931,-2.22435 z m 71.4341,-91.32123 c -6.90761,-7.27192 -11.3844,-14.55404 -11.22012,-18.25108 0.0616,-1.38583 0.31747,-1.16626 0.90246,0.77436 1.00469,3.33293 4.05102,7.76933 9.74875,14.1972 10.15828,11.46002 10.56462,13.80241 0.56891,3.27952 z m -19.82848,0.18722 c -2.5314,-2.33336 -5.75078,-6.78872 -7.40653,-10.25 -4.66425,-9.75048 -4.57765,-11.89644 0.12601,-3.12258 2.35883,4.4 6.34674,10.1375 8.86202,12.75 5.62176,5.83905 4.53979,6.26498 -1.5815,0.62258 z m -57.0405,-8.95358 c -1.6154,-1.69454 -6.43376,-5.53609 -10.70746,-8.53677 C 145.18083,220.08202 139,213.24819 139,210.20208 c 0,-0.82382 1.01448,0.0312 2.2544,1.90004 1.23991,1.86883 5.82915,5.76168 10.1983,8.65078 9.62129,6.36206 13.13117,9.61464 14.44633,13.38729 1.24285,3.56525 1.13873,3.55589 -2.46194,-0.22119 z M 47.519458,88.026628 c -5.401967,-2.414215 -5.740567,-2.736955 -3.5,-3.336054 4.349356,-1.162961 6.433428,-0.692426 8.302644,1.874546 2.880831,3.956212 1.630677,4.33665 -4.802644,1.461508 z"
     id="path3476"
     style="fill:#ff2a2a" />
</svg>
