<?xml version="1.0" encoding="UTF-8" standalone="no"?>
<svg
   xmlns:dc="http://purl.org/dc/elements/1.1/"
   xmlns:cc="http://creativecommons.org/ns#"
   xmlns:rdf="http://www.w3.org/1999/02/22-rdf-syntax-ns#"
   xmlns:svg="http://www.w3.org/2000/svg"
   xmlns="http://www.w3.org/2000/svg"
   id="svg2"
   height="500"
   width="400"
   version="1">
  <metadata
     id="metadata51">
    <rdf:RDF>
      <cc:Work
         rdf:about="">
        <dc:format>
          
          image/svg+xml
        
        </dc:format>
        <dc:type
           rdf:resource="http://purl.org/dc/dcmitype/StillImage" />
        <dc:title></dc:title>
      </cc:Work>
    </rdf:RDF>
  </metadata>
  <defs
     id="defs4" />
  <path
     style="fill-rule:nonzero;fill:#e00e00;fill-opacity:1"
     d="m396.64 1.45-393.73 0 0 301.05 0 0c0 0.03 0 0.06 0 0.09 0 108.73 88.14 196.86 196.86 196.86 108.72 0 196.87-88.14 196.87-196.86 0-0.03 0-0.06 0-0.09l0 0 0-301.05z"
     id="path2418" />
  <path
     style="fill:none;stroke:#000"
     id="path4300"
     d="m396.64 1.45-393.73 0 0 301.05 0 0c0 0.03 0 0.06 0 0.09 0 108.73 88.14 196.86 196.86 196.86 108.72 0 196.87-88.14 196.87-196.86 0-0.03 0-0.06 0-0.09l0 0 0-301.05z" />
  <path
     id="path5252"
     d="m 81.426066,23.792528 c 1.448404,1.443303 1.685096,2.010058 1.696376,3.53533 0.02397,3.241453 -1.630114,5.780805 -3.337374,7.843147 -1.033354,1.248274 0.613577,2.194331 1.640998,3.568839 L 72.32732,46.604862 C 54.200097,62.063156 36.146784,89.478627 32.076935,112.76354 c -5.292271,30.27879 -3.33883,54.60306 3.579915,73.5832 5.968508,16.37336 14.120927,27.09389 21.74446,36.39498 8.214636,10.02227 23.283083,21.60951 24.024756,23.11026 -0.718379,1.59271 -2.526891,2.67755 -1.895762,5.21688 0.54727,2.20192 3.752826,6.06654 1.895762,8.7048 -2.571293,3.65294 -0.08205,8.79452 3.848847,6.82424 3.716961,-1.86304 4.87655,-4.51534 4.78725,-7.32913 -0.192208,-6.05632 -3.331027,-7.91042 -2.832285,-10.03564 0.433758,-1.84832 -0.938174,-5.74518 -1.954965,-7.54499 l 0,-194.466414 c 0.692361,-1.116601 1.570221,-1.676706 1.857146,-4.009617 0.238625,-1.940199 -2.031423,-2.804417 -1.857146,-3.855401 0.8888,-5.359933 5.222268,-12.02594 4.698927,-15.201214 -0.454107,-2.755206 -2.641284,-4.506134 -4.698927,-5.772166 -3.557611,-2.188936 -6.27554,2.991052 -3.848847,5.4092 z"
     style="fill:#ffe000;fill-opacity:1;fill-rule:evenodd;stroke:#000000;stroke-width:1px;stroke-linecap:butt;stroke-linejoin:miter;stroke-opacity:1" />
  <path
     id="path5242"
     d="m 81.426066,238.75804 0,-188.451993 c 0,-1.429244 -1.580947,-3.122245 -2.798322,-1.916485 -14.064894,13.930704 -27.123448,34.259932 -32.208718,54.195718 -7.828614,30.69052 -4.486037,61.66614 3.687943,87.49905 5.101783,16.12359 12.213766,30.58075 31.319097,48.67371 z"
     style="fill:#e00e00;fill-opacity:1;fill-rule:evenodd;stroke:#000000;stroke-width:1px;stroke-linecap:butt;stroke-linejoin:miter;stroke-opacity:1" />
  <path
     style="fill:#ffe000;fill-opacity:1;stroke:#000000;stroke-linecap:round;stroke-linejoin:round;stroke-opacity:1"
     id="path3826"
     d="m 208.89008,106.78759 c -1.61842,0.56214 -2.07962,0.918 -0.85669,3.35727 0.6921,1.38047 -1.10838,1.92377 -1.61613,3.60537 -0.49265,1.63159 0.62349,3.91973 2.20648,4.34172 l 8.04991,2.14594 -0.0921,7.86639 c -0.0386,3.2964 -34.41185,0.76877 -54.61407,1.7361 -3.56223,0.17057 -22.59082,2.72806 -25.21792,-0.49883 -1.83789,-2.25749 -6.18909,-2.38773 -11.42994,-2.38269 -24.76817,0.0238 -36.508081,-0.46553 -62.907882,1.30815 -2.033035,0.13659 -3.800768,-0.68975 -8.603691,-3.29703 -4.446319,-2.4137 -10.73439,-2.90397 -10.73439,-2.90397 l -0.980379,8.15579 -5.985593,-0.006 c -5.342426,-0.005 -3.872656,-0.20723 -6.304549,-5.36419 -0.367164,-0.77859 -2.745,1.37546 -3.883447,3.27845 -1.302882,2.17786 -0.980432,4.89883 0.150543,7.09336 -3.294472,1.95586 -2.547062,8.9932 -0.309416,9.42245 -2.845912,1.1127 -1.656099,8.81379 0.849804,9.0304 -1.578906,2.38568 1.230519,6.45004 4.542233,6.34616 5.655662,-0.17742 11.478626,-1.09736 17.317014,-4.99794 4.973558,-3.32282 8.581032,-7.89712 15.506555,-7.33371 36.113658,2.93796 40.062478,7.75484 53.317618,8.99328 6.76613,0.63216 11.26373,0.92825 17.19906,-1.56416 2.80135,-1.17637 12.46684,0.60268 22.89179,0.79031 -0.94458,0.35421 -3.0677,16.37945 0.62746,16.29422 22.68029,-0.52316 20.57485,0.0751 20.82013,5.62198 1.01865,23.03629 1.93998,47.76599 -3.37229,71.07623 -41.40528,-4.01023 -65.00115,-2.90494 -64.79806,0.24689 0.25243,3.91749 0.0833,5.53695 -1.7932,5.61734 -4.28721,0.18366 -6.84022,4.23691 -6.74221,11.07693 0.40032,27.93793 1.28243,47.87585 -1.07219,75.81378 -0.40206,4.77054 -4.271362,8.58431 -8.949453,13.49514 -4.882164,5.12504 -8.679407,11.75963 -21.963022,10.91382 -9.514528,-0.60582 -14.647011,10.43572 -9.425663,12.27524 6.961683,2.45265 19.764878,1.71827 29.484684,1.15543 5.011048,-0.29018 9.500166,-4.83593 16.615204,-3.18484 8.42901,1.956 22.41201,2.00455 23.11359,-3.29942 2.04537,-15.46288 -7.20632,-14.47838 -6.4182,-30.16337 0.51346,-10.2187 6.57544,-40.64352 8.29586,-45.12967 3.34654,5.3941 10.59524,21.26146 16.77544,19.60712 l 30.89284,-8.26948 -1.3203,44.59225 c -0.43604,14.72687 22.31681,7.79778 22.55695,12.22477 0.38072,7.01873 7.95214,15.34256 18.15055,14.5157 31.00964,-2.51417 41.42332,-4.41382 79.4735,-7.26858 7.01713,-0.52647 6.65274,4.77507 16.88647,9.8378 7.04468,3.48507 14.38387,5.97671 12.74397,18.74851 -0.80838,6.29581 -1.52226,9.86162 2.86177,10.43494 2.50076,0.32703 5.53901,-2.47233 9.08011,-9.76531 6.13456,-12.63428 0.30499,-14.57116 -4.52325,-24.30134 -3.26457,-6.57898 2.34713,-14.26007 0.33402,-23.19269 -0.78656,-3.49013 -5.94321,-10.91211 -15.19749,-7.78045 -6.29687,2.13087 -15.32474,5.31336 -24.77082,4.61311 -15.2007,-1.12685 -25.9743,-0.15649 -39.6021,-3.38054 0,0 7.51883,-2.68703 7.3674,-5.24262 -7.47584,-3.17894 -10.86471,-18.85156 -10.72856,-23.50917 0.78902,-26.9929 0.27408,-44.99528 -1.10028,-74.50517 -1.53712,-33.00431 4.54573,-55.95173 6.52457,-73.80194 l 31.01154,-1.68008 0,-10.58232 c 0,0 28.70343,-0.93809 38.47924,-1.10951 16.32656,-0.2863 21.12632,-3.62375 22.85246,-19.07673 2.6852,-24.03877 0.13567,-35.65842 -1.4607,-48.790019 C 347.3903,76.016949 344.37089,76.29003 328.46529,59.9529 c -2.9521,-3.032191 -8.83457,-4.017079 -11.47986,-0.324648 -1.86833,2.607904 -5.93575,9.43504 -13.05064,14.647902 -3.15945,2.314831 -4.70897,3.995085 -3.42042,6.993095 1.77999,4.141437 3.03486,1.241445 5.10798,2.517701 1.70373,1.048847 2.54487,1.88839 4.4576,2.551462 1.7448,0.604857 3.96967,0.609812 5.60468,1.064153 1.8717,0.520111 2.46725,0.846351 4.42346,0.588407 3.82725,-0.504657 5.5475,-3.570931 8.2328,-3.442829 1.9617,0.09358 3.5509,9.586581 2.25664,14.528738 -3.59158,13.714519 -5.29164,18.368079 -5.28034,34.484669 l -33.01267,0.0176 c -2.20881,0.13349 -0.35798,-1.85092 -3.14196,-2.0109 -20.0824,-1.15401 -41.03729,0.32546 -40.91624,-2.21957 l 0.52489,-11.03533 c 7.18623,-1.16946 7.28656,-7.04623 7.89587,-12.12786 2.59411,-0.33192 5.14999,-1.6928 5.14999,-1.6928 3.72179,-0.69834 -13.66341,-57.754692 -23.19796,-63.596844 -8.60868,6.377686 -29.41847,29.136957 -41.60834,45.258251 -1.00731,1.332189 2.65829,4.527589 3.87259,3.168717 l 5.74345,-6.427267 c 0.5092,2.234072 1.0987,3.016053 0.80978,4.85167 -0.65333,4.150916 -2.06569,5.861922 -2.92769,10.019822 -0.95296,4.596651 2.26766,3.735941 5.11819,3.860771 -1.44412,1.14846 -3.00464,3.43874 -0.73706,5.15978 z" />
  <path
     style="fill:#e00e00;fill-opacity:1;stroke:#000000;stroke-width:1;stroke-miterlimit:4;stroke-dasharray:none;stroke-opacity:1"
     id="path3854"
     d="m 311.77751,76.626503 c 0,0 -0.90684,4.356177 1.44755,3.821092 3.05359,-0.693993 5.56197,-2.114939 7.97162,-3.667537 1.51744,-0.977728 -3.93448,-3.152006 -4.85945,-2.646329 z" />
  <path
     id="path4927"
     d="m 206.62686,82.895547 c 5.01331,-4.454404 7.03605,-2.101804 12.48286,-0.859824 5.93842,1.354076 12.08495,1.875692 18.23572,2.38038 1.7707,0.14529 -0.3274,10.180389 3.28173,16.898957 2.25701,4.20152 2.4348,7.00564 16.03996,4.87043"
     style="fill:none;fill-rule:evenodd;stroke:#000000;stroke-width:1px;stroke-linecap:butt;stroke-linejoin:miter;stroke-opacity:1" />
  <path
     id="path4931"
     d="m 208.89008,106.78759 1.38754,1.08186"
     style="fill:none;fill-rule:evenodd;stroke:#000000;stroke-width:1px;stroke-linecap:round;stroke-linejoin:miter;stroke-opacity:1" />
  <path
     id="path4935"
     d="m 211.34378,86.330443 5.45238,1.503607 -2.71635,3.837826"
     style="fill:none;fill-rule:evenodd;stroke:#000000;stroke-width:1px;stroke-linecap:round;stroke-linejoin:miter;stroke-opacity:1" />
  <path
     id="path4937"
     d="m 214.12545,87.316878 0.016,2.224038"
     style="fill:none;fill-rule:evenodd;stroke:#000000;stroke-width:1px;stroke-linecap:round;stroke-linejoin:miter;stroke-opacity:1" />
  <path
     id="path5228"
     d="m 209.62714,101.62781 c 1.03874,-0.0528 1.90049,-0.45964 2.29097,-1.809005"
     style="fill:none;fill-rule:evenodd;stroke:#000000;stroke-width:1px;stroke-linecap:round;stroke-linejoin:miter;stroke-opacity:1" />
  <path
     id="path5230"
     d="m 226.23112,83.874748 c 3.32612,9.11489 -1.83901,17.163962 -4.12506,21.520582 -1.92967,3.67745 -0.86951,4.46845 2.73622,3.88745 7.15373,-1.1527 10.07202,-10.280683 10.31808,-15.709713"
     style="fill:none;fill-rule:evenodd;stroke:#000000;stroke-width:1px;stroke-linecap:round;stroke-linejoin:miter;stroke-opacity:1" />
  <path
     id="path5232"
     d="m 232.54811,103.17442 c -0.9195,3.39464 -3.4543,8.42897 -0.2613,9.52034 4.77017,1.63044 7.53911,-2.20904 9.18502,-9.77138"
     style="fill:none;fill-rule:evenodd;stroke:#000000;stroke-width:1px;stroke-linecap:round;stroke-linejoin:miter;stroke-opacity:1" />
  <path
     id="path5234"
     d="m 238.58882,110.79323 c -0.0469,2.88582 0.80034,4.54218 2.41549,5.14267 4.95432,1.96054 6.26164,-3.14386 7.67309,-8.82378"
     style="fill:none;fill-rule:evenodd;stroke:#000000;stroke-width:1px;stroke-linecap:round;stroke-linejoin:miter;stroke-opacity:1" />
  <path
     id="path5236"
     d="m 246.38547,114.07839 c -0.8036,1.97887 0.39337,4.25867 2.38579,4.23496"
     style="fill:none;fill-rule:evenodd;stroke:#000000;stroke-width:1px;stroke-linecap:round;stroke-linejoin:miter;stroke-opacity:1" />
  <path
     id="path5256"
     d="m 85.274913,47.221726 -3.848847,-0.83736"
     style="fill:none;fill-rule:evenodd;stroke:#000000;stroke-width:1px;stroke-linecap:round;stroke-linejoin:round;stroke-opacity:1" />
  <path
     id="path5258"
     d="m 81.426066,38.739844 1.329999,1.087949"
     style="fill:none;fill-rule:evenodd;stroke:#000000;stroke-width:1px;stroke-linecap:round;stroke-linejoin:round;stroke-opacity:1" />
  <path
     id="path5260"
     d="m 26.070232,135.22342 c 1.702504,2.40791 4.460895,2.56177 7.754564,2.52204"
     style="fill:none;fill-rule:evenodd;stroke:#000000;stroke-width:1px;stroke-linecap:round;stroke-linejoin:round;stroke-opacity:1" />
  <path
     id="path5262"
     d="m 25.76082,144.64623 c 2.740816,1.51933 5.495438,0.83485 7.102282,0.74154"
     style="fill:none;fill-rule:evenodd;stroke:#000000;stroke-width:1px;stroke-linecap:round;stroke-linejoin:round;stroke-opacity:1" />
  <path
     id="path5264"
     d="m 26.61062,153.67627 c 1.914987,0.5243 5.149212,-0.94863 6.43816,-0.83817"
     style="fill:none;fill-rule:evenodd;stroke:#000000;stroke-width:1px;stroke-linecap:round;stroke-linejoin:round;stroke-opacity:1" />
  <path
     id="path5266"
     d="m 42.093278,130.2218 4.290594,-0.57373"
     style="fill:none;fill-rule:evenodd;stroke:#000000;stroke-width:1px;stroke-linecap:round;stroke-linejoin:round;stroke-opacity:1" />
</svg>
