<svg width="26" height="26" viewBox="0 0 26 26" version="1.1" xmlns="http://www.w3.org/2000/svg" xmlns:xlink="http://www.w3.org/1999/xlink">
<title>R&#195;&#184;dliste: LC 24</title>
<desc>Created using Figma</desc>
<g id="Canvas" transform="translate(-1225 1983)">
<g id="R&#195;&#184;dliste: LC 24">
<g id="R&#195;&#184;dliste: LC 24">
<g id="avatar">
<use xlink:href="#path0_fill" transform="translate(1226 -1982)" fill="#1F8C6D"/>
<use xlink:href="#path1_stroke" transform="translate(1226 -1982)" fill="#231F20" fill-opacity="0.1"/>
</g>
<g id="LC">
<use xlink:href="#path2_fill" transform="translate(1226 -1982)" fill="#EBEBEB"/>
</g>
</g>
</g>
</g>
<defs>
<path id="path0_fill" fill-rule="evenodd" d="M 12 24C 18.6274 24 24 18.6274 24 12C 24 5.37258 18.6274 0 12 0C 5.37258 0 0 5.37258 0 12C 0 18.6274 5.37258 24 12 24Z"/>
<path id="path1_stroke" d="M 12 24.5C 18.9036 24.5 24.5 18.9036 24.5 12L 23.5 12C 23.5 18.3513 18.3513 23.5 12 23.5L 12 24.5ZM 24.5 12C 24.5 5.09644 18.9036 -0.5 12 -0.5L 12 0.5C 18.3513 0.5 23.5 5.64873 23.5 12L 24.5 12ZM 12 -0.5C 5.09644 -0.5 -0.5 5.09644 -0.5 12L 0.5 12C 0.5 5.64873 5.64873 0.5 12 0.5L 12 -0.5ZM -0.5 12C -0.5 18.9036 5.09644 24.5 12 24.5L 12 23.5C 5.64873 23.5 0.5 18.3513 0.5 12L -0.5 12Z"/>
<path id="path2_fill" d="M 7.37109 14.8164L 11.2441 14.8164L 11.2441 16L 5.88867 16L 5.88867 7.46875L 7.37109 7.46875L 7.37109 14.8164ZM 18.5156 13.2227C 18.4297 14.1328 18.0938 14.8438 17.5078 15.3555C 16.9219 15.8633 16.1426 16.1172 15.1699 16.1172C 14.4902 16.1172 13.8906 15.957 13.3711 15.6367C 12.8555 15.3125 12.457 14.8535 12.1758 14.2598C 11.8945 13.666 11.748 12.9766 11.7363 12.1914L 11.7363 11.3945C 11.7363 10.5898 11.8789 9.88086 12.1641 9.26758C 12.4492 8.6543 12.8574 8.18164 13.3887 7.84961C 13.9238 7.51758 14.541 7.35156 15.2402 7.35156C 16.1816 7.35156 16.9395 7.60742 17.5137 8.11914C 18.0879 8.63086 18.4219 9.35352 18.5156 10.2871L 17.0391 10.2871C 16.9688 9.67383 16.7891 9.23242 16.5 8.96289C 16.2148 8.68945 15.7949 8.55273 15.2402 8.55273C 14.5957 8.55273 14.0996 8.78906 13.752 9.26172C 13.4082 9.73047 13.2324 10.4199 13.2246 11.3301L 13.2246 12.0859C 13.2246 13.0078 13.3887 13.7109 13.7168 14.1953C 14.0488 14.6797 14.5332 14.9219 15.1699 14.9219C 15.752 14.9219 16.1895 14.791 16.4824 14.5293C 16.7754 14.2676 16.9609 13.832 17.0391 13.2227L 18.5156 13.2227Z"/>
</defs>
</svg>

