<svg width="26" height="26" viewBox="0 0 26 26" version="1.1" xmlns="http://www.w3.org/2000/svg" xmlns:xlink="http://www.w3.org/1999/xlink">
<title>R&#195;&#184;dliste: VU 24</title>
<desc>Created using Figma</desc>
<g id="Canvas" transform="translate(-1260 1982)">
<g id="R&#195;&#184;dliste: VU 24">
<g id="R&#195;&#184;dliste: VU 24">
<g id="R&#195;&#184;dliste: VU">
<g id="avatar">
<use xlink:href="#path0_fill" transform="translate(1261 -1981)" fill="#E84325"/>
<use xlink:href="#path1_stroke" transform="translate(1261 -1981)" fill="#231F20" fill-opacity="0.1"/>
</g>
<g id="VU">
<use xlink:href="#path2_fill" transform="translate(1261 -1981)" fill="#EBEBEB"/>
</g>
</g>
</g>
</g>
</g>
<defs>
<path id="path0_fill" fill-rule="evenodd" d="M 12 24C 18.6274 24 24 18.6274 24 12C 24 5.37258 18.6274 0 12 0C 5.37258 0 0 5.37258 0 12C 0 18.6274 5.37258 24 12 24Z"/>
<path id="path1_stroke" d="M 12 24.5C 18.9036 24.5 24.5 18.9036 24.5 12L 23.5 12C 23.5 18.3513 18.3513 23.5 12 23.5L 12 24.5ZM 24.5 12C 24.5 5.09644 18.9036 -0.5 12 -0.5L 12 0.5C 18.3513 0.5 23.5 5.64873 23.5 12L 24.5 12ZM 12 -0.5C 5.09644 -0.5 -0.5 5.09644 -0.5 12L 0.5 12C 0.5 5.64873 5.64873 0.5 12 0.5L 12 -0.5ZM -0.5 12C -0.5 18.9036 5.09644 24.5 12 24.5L 12 23.5C 5.64873 23.5 0.5 18.3513 0.5 12L -0.5 12Z"/>
<path id="path2_fill" d="M 8.07422 14.1426L 10.2422 7.46875L 11.8711 7.46875L 8.80078 16L 7.36523 16L 4.30664 7.46875L 5.92969 7.46875L 8.07422 14.1426ZM 19.0781 7.46875L 19.0781 13.1699C 19.0781 14.0762 18.7871 14.7949 18.2051 15.3262C 17.627 15.8535 16.8555 16.1172 15.8906 16.1172C 14.9141 16.1172 14.1387 15.8574 13.5645 15.3379C 12.9902 14.8145 12.7031 14.0898 12.7031 13.1641L 12.7031 7.46875L 14.1797 7.46875L 14.1797 13.1758C 14.1797 13.7461 14.3242 14.1816 14.6133 14.4824C 14.9023 14.7832 15.3281 14.9336 15.8906 14.9336C 17.0313 14.9336 17.6016 14.332 17.6016 13.1289L 17.6016 7.46875L 19.0781 7.46875Z"/>
</defs>
</svg>

