<svg width="40" height="40" viewBox="0 0 40 40" version="1.1" xmlns="http://www.w3.org/2000/svg" xmlns:xlink="http://www.w3.org/1999/xlink">
<title>Icon 40 Arter</title>
<desc>Created using Figma</desc>
<g id="Canvas" transform="translate(176 -357)">
<g id="Icon 40 Arter">
<g id="Icon 40 Arter">
<g id="Chip ">
<mask id="mask0_outline" mask-type="alpha">
<g id="mask">
<use xlink:href="#path0_fill" transform="translate(-174.824 358.176)" fill="#FFFFFF"/>
<use xlink:href="#path1_stroke" transform="translate(-174.824 358.176)" fill="#FFFFFF"/>
</g>
</mask>
<g id="mask" mask="url(#mask0_outline)">
<use xlink:href="#path2_fill" transform="translate(-173.647 359.353)" fill="#F2C94C"/>
<use xlink:href="#path3_stroke" transform="translate(-173.647 359.353)" fill="#231F20" fill-opacity="0.1"/>
</g>
</g>
<clipPath id="clip-0" clip-rule="evenodd">
<path d="M -170.118 362.882L -141.882 362.882L -141.882 391.118L -170.118 391.118L -170.118 362.882Z" fill="#FFFFFF"/>
</clipPath>
<g id="icon dna" clip-path="url(#clip-0)">
<g id="Vector">
<use xlink:href="#path4_fill" transform="translate(-165.412 365.235)" fill="#656565"/>
</g>
</g>
</g>
</g>
</g>
<defs>
<path id="path0_fill" fill-rule="evenodd" d="M 18.8235 37.6471C 29.2195 37.6471 37.6471 29.2195 37.6471 18.8235C 37.6471 8.42758 29.2195 0 18.8235 0C 8.42758 0 0 8.42758 0 18.8235C 0 29.2195 8.42758 37.6471 18.8235 37.6471Z"/>
<path id="path1_stroke" d="M 18.8235 38.1471C 29.4956 38.1471 38.1471 29.4956 38.1471 18.8235L 37.1471 18.8235C 37.1471 28.9433 28.9433 37.1471 18.8235 37.1471L 18.8235 38.1471ZM 38.1471 18.8235C 38.1471 8.15144 29.4956 -0.5 18.8235 -0.5L 18.8235 0.5C 28.9433 0.5 37.1471 8.70372 37.1471 18.8235L 38.1471 18.8235ZM 18.8235 -0.5C 8.15144 -0.5 -0.5 8.15144 -0.5 18.8235L 0.5 18.8235C 0.5 8.70372 8.70372 0.5 18.8235 0.5L 18.8235 -0.5ZM -0.5 18.8235C -0.5 29.4956 8.15144 38.1471 18.8235 38.1471L 18.8235 37.1471C 8.70372 37.1471 0.5 28.9433 0.5 18.8235L -0.5 18.8235Z"/>
<path id="path2_fill" fill-rule="evenodd" d="M 17.7176 35.4353C 27.5028 35.4353 35.4353 27.5028 35.4353 17.7176C 35.4353 7.93246 27.5028 0 17.7176 0C 7.93246 0 0 7.93246 0 17.7176C 0 27.5028 7.93246 35.4353 17.7176 35.4353Z"/>
<path id="path3_stroke" d="M 17.7176 35.9353C 27.779 35.9353 35.9353 27.779 35.9353 17.7176L 34.9353 17.7176C 34.9353 27.2267 27.2267 34.9353 17.7176 34.9353L 17.7176 35.9353ZM 35.9353 17.7176C 35.9353 7.65632 27.779 -0.5 17.7176 -0.5L 17.7176 0.5C 27.2267 0.5 34.9353 8.2086 34.9353 17.7176L 35.9353 17.7176ZM 17.7176 -0.5C 7.65632 -0.5 -0.5 7.65632 -0.5 17.7176L 0.5 17.7176C 0.5 8.2086 8.2086 0.5 17.7176 0.5L 17.7176 -0.5ZM -0.5 17.7176C -0.5 27.779 7.65632 35.9353 17.7176 35.9353L 17.7176 34.9353C 8.2086 34.9353 0.5 27.2267 0.5 17.7176L -0.5 17.7176Z"/>
<path id="path4_fill" d="M 0 0L 2.35294 0L 2.35294 2.35294C 2.35294 4.04706 3.15294 5.42353 4.56471 6.8C 5.57647 7.77647 6.92941 8.71765 8.34118 9.64706L 6.18823 11.0471C 5.02353 10.2588 3.89412 9.41176 2.94118 8.48235C 1.25882 6.84706 0 4.82353 0 2.35294L 0 0ZM 16.4706 0L 18.8235 0L 18.8235 2.35294C 18.8235 4.82353 17.5647 6.84706 15.8823 8.48235C 14.2235 10.1059 12.1059 11.4471 10.0471 12.7529C 7.98823 14.0706 5.98823 15.3529 4.56471 16.7294C 3.15294 18.1059 2.35294 19.4824 2.35294 21.1765L 2.35294 23.5294L 0 23.5294L 0 21.1765C 0 18.7059 1.25882 16.6824 2.94118 15.0471C 4.6 13.4235 6.71765 12.0824 8.77647 10.7765C 10.8353 9.45882 12.8353 8.17647 14.2588 6.8C 15.6706 5.42353 16.4706 4.04706 16.4706 2.35294L 16.4706 0ZM 12.6353 12.4824C 13.8 13.2706 14.9294 14.1176 15.8823 15.0471C 17.5647 16.6824 18.8235 18.7059 18.8235 21.1765L 18.8235 23.5294L 16.4706 23.5294L 16.4706 21.1765C 16.4706 19.4824 15.6706 18.1059 14.2588 16.7294C 13.2471 15.7529 11.8941 14.8118 10.4824 13.8824L 12.6353 12.4824ZM 3.52941 1.17647L 15.2941 1.17647L 15.2941 2.35294L 15.2235 2.94118L 3.6 2.94118L 3.52941 2.35294L 3.52941 1.17647ZM 4.32941 4.70588L 14.4941 4.70588C 14.2118 5.10588 13.8824 5.51765 13.4353 5.95294L 12.8353 6.47059L 5.9647 6.47059L 5.38823 5.95294C 4.94118 5.51765 4.61176 5.10588 4.32941 4.70588ZM 5.98823 17.0588L 12.8588 17.0588L 13.4353 17.5765C 13.8824 18.0118 14.2118 18.4235 14.4941 18.8235L 4.32941 18.8235C 4.61176 18.4235 4.94118 18.0118 5.38823 17.5765L 5.98823 17.0588ZM 3.6 20.5882L 15.2235 20.5882L 15.2941 21.1765L 15.2941 22.3529L 3.52941 22.3529L 3.52941 21.1765L 3.6 20.5882Z"/>
</defs>
</svg>

